<svg width="424" height="894" viewBox="0 0 424 894" fill="none" xmlns="http://www.w3.org/2000/svg">
<path d="M178.527 881.805C174.343 888.167 167.611 892.442 161.075 893.594H423.962V91.5993C408.249 153.979 386.551 175.482 354.733 211.891C351.031 216.552 335.477 248.944 332.091 256.744C337.003 254.138 390.101 202.296 412.386 183.047C415.063 181.628 417.786 183.287 416.509 186.228C379.046 267.522 342.466 258.287 318.785 288.917C315.597 293.051 311.883 300.984 309.084 306.829C300.593 325.541 300.098 327.145 295.67 336.224C301.06 339.446 310.941 329.829 315.84 326.316C340.099 305.696 354.364 289.511 378.554 273.612C392.496 268.198 381.994 286.905 381.994 286.905C381.994 286.905 375.419 313.364 286.868 357.155L266.44 399.528C265.393 404.906 271.625 403.23 273.523 401.788C302.726 381.205 328.153 346.51 360.863 341.677L363.283 341.7L364.495 342.93L363.868 345.468C352.237 367.52 335.637 376.533 319.938 388.366C300.327 402.432 280.081 415.008 257.324 421.621C251.363 427.569 245.079 440.079 240.203 449.279L239.016 454.012L245.847 451.914C274.911 436.595 301.65 406.653 333.533 404.978C339.818 403.626 337.658 408.314 336.96 409.007C304.73 441.477 269.698 462.483 229.519 472.989C226.238 476.694 223.932 482.387 222.306 487.75C235.55 486.517 263.207 457.657 333.174 472.547L333.426 472.848C338.526 474.209 333.47 479.765 333.47 479.765C297.328 489.889 256.3 513.234 217.694 501.586C213.639 502.896 210.847 517.177 206.294 526.763L194.921 557.46C194.766 562.702 200.246 561.806 202.836 560.695C241.066 536.844 253.607 518.06 322.69 505.723C325.62 504.79 328.295 508.437 326.457 511.69C286.614 550.075 234.635 568.021 187.336 584.259C174.404 606.995 166.231 634.372 163.987 656.234C170.569 657.662 180.691 645.895 185.811 641.386C209.213 612.665 234.774 585.546 264.619 572.317L267.802 571.808L267.365 576.08C248.44 614.028 226.416 634.715 196.961 656.787C182.891 668.31 170.799 671.914 159.674 680.045C152.802 706.769 155.367 726.248 155.982 751.775C158.713 789.616 169.937 826.592 184.64 860.221C185.491 867.112 182.669 873.209 178.527 881.805Z" fill="white"/>
<path d="M360.912 62.3679C363.281 43.9927 365.037 25.881 368.768 6.99635C368.768 6.99635 370.091 2.75788 371.998 1.12399L0.163269 1.12401L0.163862 893.594H154.312C127.703 884.767 122.988 859.985 122.375 845.326C116.561 815.757 141.765 669.49 142.418 662.951C120.217 675.143 96.7976 690.681 73.6703 700.09C51.9505 707.229 31.0824 721.259 6.70256 718.865C2.15423 719.607 -1.49252 714.309 3.3513 709C33.8168 676.656 67.794 654.858 107.176 645.071C120.275 643.177 133.51 641.941 146.113 645.11C151.443 637.689 144.149 632.969 141.419 627.528C102.266 595.597 82.294 541.753 84.3269 487.954L87.8627 482.531C93.8789 484.285 96.8937 489.779 100.607 494.702C111.691 509.284 123.907 539.715 134.141 555.259L135.248 551.692L119.977 471.065C119.132 465.539 117.818 456.484 123.984 450.025C140.094 454.893 143.655 483.624 147.378 489.056C158.093 517.208 161.464 547.695 168.317 576.934C179.312 559.3 182.953 545.129 190.764 525.524C185.589 518.872 177.638 513.13 172.294 505.853C153.95 481.65 135.315 453.199 136.792 420.314C140.499 412.715 147.615 418.843 151.149 421.409C172.032 442.692 187.995 476.068 199.626 504.078C201.408 504.692 208.725 482.285 208.725 482.285C187.015 451.151 177.196 414.017 173.419 375.646C167.773 324.051 186.518 353.167 186.518 353.167C204.666 386.685 216.159 425.864 216.776 465.655L217.827 466.14L217.901 466.01C218.03 465.781 218.163 465.547 218.299 465.324C225.626 452.163 232.952 439.003 239.061 422.929C237.818 421 236.669 419.058 235.575 417.089C217.847 384.971 212.21 349.127 212.024 307.817C212.379 302.108 209.93 289.127 218.546 289.772C234.422 318.328 240.053 351.078 246.079 383.414C247.213 389.422 248.351 395.447 249.574 401.394C256.302 394.654 258.809 385.632 266.122 369.651C262.988 364.239 260.269 356.062 257.887 350.404C245.233 320.098 238.527 291.231 239.774 252.389C241.517 244.405 238.361 234.026 245.018 228.425C249.717 225.378 249.231 233.398 250.914 235.387C257.565 262.49 264.936 289.367 269.757 317.216C271.835 329.227 273.425 341.438 274.294 353.905C279.133 348.61 283.775 335.947 288.592 325.779C297.137 309.809 281.614 299.971 280.214 287.321C280.186 286.99 260.86 216.35 269.054 173.798C277.96 169.861 284.447 186.454 289.621 190.151C284.384 167.929 277.754 140.894 279.868 115.406C281.686 109.223 290.434 117.168 290.434 117.168C300.262 125.486 330.46 190.907 335.781 221.317C339.541 215.772 340.239 213.473 346.973 198.011C357.131 173.476 336.828 163.045 333.532 143.191C333.239 142.125 332.94 141.074 332.637 140.005C322.57 103.535 319.202 66.4692 318.455 27.1998C318.6 21.9544 319.206 11.1136 321.903 7.94213C332.062 6.97711 331.344 20.5495 334.149 27.7921C339.683 49.75 343.38 72.758 349.568 94.0843C350.179 96.2083 350.831 98.3155 351.502 100.399L353.083 103.301L354.873 98.4853C357.617 86.1626 359.392 74.2248 360.912 62.3679Z" fill="white"/>
<path d="M358.226 170.227C353.612 169.141 352.139 160.781 350.661 155.359C346.052 132.48 358.158 133.457 358.158 133.457C360.047 143.796 361.559 158.046 358.226 170.227Z" fill="white"/>
<path d="M304.586 220C309.986 229.009 322.56 228.235 326.738 239.027L301.254 293.522C304.404 257.877 297.495 225.619 296.444 207.595L304.586 220Z" fill="white"/>
<path d="M388.513 129.204L410.382 98.5467L410.728 98.065C415.257 91.7482 420.338 84.663 423.962 91.5993L423.962 1.12402L374.858 1.12403C377.842 4.1275 377.97 7.85915 378.932 11.9562C380.365 17.9754 380.442 24.7054 381.556 30.737C384.352 67.4224 376.972 118.413 372.415 157.429C376.452 151.169 385.913 133.235 388.513 129.204Z" fill="white"/>
<path d="M156.196 615.851C153.115 619.058 150.785 614.857 149.813 613.206C149.172 611.729 136.705 592.844 145.201 582.918C150.15 582.345 160.051 608.059 156.196 615.851Z" fill="white"/>
</svg>
