<svg width="424" height="894" viewBox="0 0 424 894" fill="none" xmlns="http://www.w3.org/2000/svg">
<mask id="path-1-inside-1_46_14" fill="white">
<path d="M178.527 881.805C174.343 888.167 167.611 892.442 161.075 893.594H423.962V91.5993C408.249 153.979 386.551 175.482 354.733 211.891C351.031 216.552 335.477 248.944 332.091 256.744C337.003 254.138 390.101 202.296 412.386 183.047C415.063 181.628 417.786 183.287 416.509 186.228C379.046 267.522 342.466 258.287 318.785 288.917C315.597 293.051 311.883 300.984 309.084 306.829C300.593 325.541 300.098 327.145 295.67 336.224C301.06 339.446 310.941 329.829 315.84 326.316C340.099 305.696 354.364 289.511 378.554 273.612C392.496 268.198 381.994 286.905 381.994 286.905C381.994 286.905 375.419 313.364 286.868 357.155L266.44 399.528C265.393 404.906 271.625 403.23 273.523 401.788C302.726 381.205 328.153 346.51 360.863 341.677L363.283 341.7L364.495 342.93L363.868 345.468C352.237 367.52 335.637 376.533 319.938 388.366C300.327 402.432 280.081 415.008 257.324 421.621C251.363 427.569 245.079 440.079 240.203 449.279L239.016 454.012L245.847 451.914C274.911 436.595 301.65 406.653 333.533 404.978C339.818 403.626 337.658 408.314 336.96 409.007C304.73 441.477 269.698 462.483 229.519 472.989C226.238 476.694 223.932 482.387 222.306 487.75C235.55 486.517 263.207 457.657 333.174 472.547L333.426 472.848C338.526 474.209 333.47 479.765 333.47 479.765C297.328 489.889 256.3 513.234 217.694 501.586C213.639 502.896 210.847 517.177 206.294 526.763L194.921 557.46C194.766 562.702 200.246 561.806 202.836 560.695C241.066 536.844 253.607 518.06 322.69 505.723C325.62 504.79 328.295 508.437 326.457 511.69C286.614 550.075 234.635 568.021 187.336 584.259C174.404 606.995 166.231 634.372 163.987 656.234C170.569 657.662 180.691 645.895 185.811 641.386C209.213 612.665 234.774 585.546 264.619 572.317L267.802 571.808L267.365 576.08C248.44 614.028 226.416 634.715 196.961 656.787C182.891 668.31 170.799 671.914 159.674 680.045C152.802 706.769 155.367 726.248 155.982 751.775C158.713 789.616 169.937 826.592 184.64 860.221C185.491 867.112 182.669 873.209 178.527 881.805Z"/>
<path d="M360.912 62.3679C363.281 43.9927 365.037 25.881 368.768 6.99635C368.768 6.99635 370.091 2.75788 371.998 1.12399L0.163269 1.12401L0.163862 893.594H154.312C127.703 884.767 122.988 859.985 122.375 845.326C116.561 815.757 141.765 669.49 142.418 662.951C120.217 675.143 96.7976 690.681 73.6703 700.09C51.9505 707.229 31.0824 721.259 6.70256 718.865C2.15423 719.607 -1.49252 714.309 3.3513 709C33.8168 676.656 67.794 654.858 107.176 645.071C120.275 643.177 133.51 641.941 146.113 645.11C151.443 637.689 144.149 632.969 141.419 627.528C102.266 595.597 82.294 541.753 84.3269 487.954L87.8627 482.531C93.8789 484.285 96.8937 489.779 100.607 494.702C111.691 509.284 123.907 539.715 134.141 555.259L135.248 551.692L119.977 471.065C119.132 465.539 117.818 456.484 123.984 450.025C140.094 454.893 143.655 483.624 147.378 489.056C158.093 517.208 161.464 547.695 168.317 576.934C179.312 559.3 182.953 545.129 190.764 525.524C185.589 518.872 177.638 513.13 172.294 505.853C153.95 481.65 135.315 453.199 136.792 420.314C140.499 412.715 147.615 418.843 151.149 421.409C172.032 442.692 187.995 476.068 199.626 504.078C201.408 504.692 208.725 482.285 208.725 482.285C187.015 451.151 177.196 414.017 173.419 375.646C167.773 324.051 186.518 353.167 186.518 353.167C204.666 386.685 216.159 425.864 216.776 465.655L217.827 466.14L217.901 466.01C218.03 465.781 218.163 465.547 218.299 465.324C225.626 452.163 232.952 439.003 239.061 422.929C237.818 421 236.669 419.058 235.575 417.089C217.847 384.971 212.21 349.127 212.024 307.817C212.379 302.108 209.93 289.127 218.546 289.772C234.422 318.328 240.053 351.078 246.079 383.414C247.213 389.422 248.351 395.447 249.574 401.394C256.302 394.654 258.809 385.632 266.122 369.651C262.988 364.239 260.269 356.062 257.887 350.404C245.233 320.098 238.527 291.231 239.774 252.389C241.517 244.405 238.361 234.026 245.018 228.425C249.717 225.378 249.231 233.398 250.914 235.387C257.565 262.49 264.936 289.367 269.757 317.216C271.835 329.227 273.425 341.438 274.294 353.905C279.133 348.61 283.775 335.947 288.592 325.779C297.137 309.809 281.614 299.971 280.214 287.321C280.186 286.99 260.86 216.35 269.054 173.798C277.96 169.861 284.447 186.454 289.621 190.151C284.384 167.929 277.754 140.894 279.868 115.406C281.686 109.223 290.434 117.168 290.434 117.168C300.262 125.486 330.46 190.907 335.781 221.317C339.541 215.772 340.239 213.473 346.973 198.011C357.131 173.476 336.828 163.045 333.532 143.191C333.239 142.125 332.94 141.074 332.637 140.005C322.57 103.535 319.202 66.4692 318.455 27.1998C318.6 21.9544 319.206 11.1136 321.903 7.94213C332.062 6.97711 331.344 20.5495 334.149 27.7921C339.683 49.75 343.38 72.758 349.568 94.0843C350.179 96.2083 350.831 98.3155 351.502 100.399L353.083 103.301L354.873 98.4853C357.617 86.1626 359.392 74.2248 360.912 62.3679Z"/>
<path d="M358.226 170.227C353.612 169.141 352.139 160.781 350.661 155.359C346.052 132.48 358.158 133.457 358.158 133.457C360.047 143.796 361.559 158.046 358.226 170.227Z"/>
<path d="M304.586 220C309.986 229.009 322.56 228.235 326.738 239.027L301.254 293.522C304.404 257.877 297.495 225.619 296.444 207.595L304.586 220Z"/>
<path d="M388.513 129.204L410.382 98.5467L410.728 98.065C415.257 91.7482 420.338 84.663 423.962 91.5993L423.962 1.12402L374.858 1.12403C377.842 4.1275 377.97 7.85915 378.932 11.9562C380.365 17.9754 380.442 24.7054 381.556 30.737C384.352 67.4224 376.972 118.413 372.415 157.429C376.452 151.169 385.913 133.235 388.513 129.204Z"/>
<path d="M156.196 615.851C153.115 619.058 150.785 614.857 149.813 613.206C149.172 611.729 136.705 592.844 145.201 582.918C150.15 582.345 160.051 608.059 156.196 615.851Z"/>
</mask>
<path d="M154.312 893.594V893.094L154.216 894.084L154.312 893.594ZM161.075 893.594L161.162 894.086L161.075 893.094V893.594ZM371.998 1.12399L371.672 0.744353L370.646 1.62399L371.998 1.62399L371.998 1.12399ZM410.728 98.065L410.321 97.7736C410.206 97.9348 410.091 98.0953 409.976 98.2551L410.382 98.5467L410.788 98.8383C410.903 98.6783 411.019 98.5175 411.134 98.3564L410.728 98.065ZM154.312 893.594V894.094H161.075V893.594V893.094H154.312V893.594ZM154.312 893.594L154.216 894.084C156.432 894.522 158.789 894.504 161.162 894.086L161.075 893.594L160.988 893.101C158.721 893.501 156.489 893.514 154.409 893.103L154.312 893.594ZM217.901 466.01L217.466 465.764C217.441 465.808 217.417 465.851 217.392 465.894L217.827 466.14L218.262 466.387C218.287 466.344 218.311 466.3 218.336 466.256L217.901 466.01ZM423.962 1.12402L423.962 0.624023L371.998 0.623993L371.998 1.12399L371.998 1.62399L423.962 1.62402L423.962 1.12402ZM374.858 1.12403L375.196 0.755799C374.608 0.215162 373.981 -0.0394599 373.337 -0.00461858C372.709 0.0294265 372.149 0.335682 371.672 0.744353L371.998 1.12399L372.323 1.50363C372.704 1.17708 373.061 1.01182 373.392 0.993918C373.707 0.976813 374.082 1.08982 374.52 1.49226L374.858 1.12403ZM368.768 6.99635L367.814 6.6984L367.798 6.74976L367.787 6.80254L368.768 6.99635ZM360.912 62.3679L359.92 62.24L359.92 62.2407L360.912 62.3679ZM354.873 98.4853L355.81 98.8337L355.834 98.7695L355.849 98.7027L354.873 98.4853ZM353.083 103.301L352.205 103.78L353.256 105.708L354.021 103.65L353.083 103.301ZM351.502 100.399L350.55 100.706L350.579 100.795L350.624 100.877L351.502 100.399ZM349.568 94.0843L350.529 93.8075L350.528 93.8056L349.568 94.0843ZM334.149 27.7921L335.119 27.5477L335.104 27.4881L335.082 27.4309L334.149 27.7921ZM321.903 7.94213L321.809 6.94661L321.404 6.98501L321.141 7.29432L321.903 7.94213ZM318.455 27.1998L317.455 27.1722L317.455 27.1955L317.455 27.2188L318.455 27.1998ZM332.637 140.005L331.673 140.271L331.675 140.278L332.637 140.005ZM333.532 143.191L334.518 143.027L334.51 142.976L334.496 142.925L333.532 143.191ZM346.973 198.011L347.889 198.41L347.893 198.402L347.897 198.393L346.973 198.011ZM335.781 221.317L334.796 221.489L335.222 223.923L336.609 221.878L335.781 221.317ZM290.434 117.168L289.761 117.908L289.774 117.92L289.788 117.932L290.434 117.168ZM279.868 115.406L278.909 115.124L278.88 115.222L278.871 115.324L279.868 115.406ZM289.621 190.151L289.04 190.965L291.205 192.512L290.595 189.922L289.621 190.151ZM269.054 173.798L268.65 172.884L268.171 173.095L268.072 173.609L269.054 173.798ZM280.214 287.321L279.218 287.404L279.219 287.418L279.22 287.431L280.214 287.321ZM288.592 325.779L287.711 325.307L287.699 325.328L287.689 325.351L288.592 325.779ZM274.294 353.905L273.296 353.975L273.459 356.301L275.032 354.58L274.294 353.905ZM269.757 317.216L270.743 317.046L270.743 317.045L269.757 317.216ZM250.914 235.387L251.885 235.149L251.829 234.92L251.678 234.741L250.914 235.387ZM245.018 228.425L244.474 227.586L244.422 227.62L244.375 227.66L245.018 228.425ZM239.774 252.389L238.797 252.176L238.778 252.266L238.775 252.357L239.774 252.389ZM257.887 350.404L256.964 350.789L256.965 350.792L257.887 350.404ZM266.122 369.651L267.031 370.067L267.246 369.597L266.987 369.15L266.122 369.651ZM249.574 401.394L248.595 401.595L248.969 403.416L250.282 402.1L249.574 401.394ZM246.079 383.414L245.096 383.598L245.097 383.6L246.079 383.414ZM218.546 289.772L219.42 289.286L219.158 288.815L218.62 288.775L218.546 289.772ZM212.024 307.817L211.026 307.755L211.024 307.788L211.024 307.821L212.024 307.817ZM235.575 417.089L234.699 417.572L234.701 417.574L235.575 417.089ZM239.061 422.929L239.996 423.284L240.176 422.811L239.902 422.387L239.061 422.929ZM218.299 465.324L219.152 465.846L219.163 465.828L219.173 465.81L218.299 465.324ZM217.827 466.14L217.408 467.048L218.244 467.434L218.698 466.633L217.827 466.14ZM216.776 465.655L215.776 465.671L215.785 466.3L216.357 466.563L216.776 465.655ZM186.518 353.167L187.397 352.691L187.379 352.658L187.358 352.626L186.518 353.167ZM173.419 375.646L174.414 375.548L174.413 375.538L173.419 375.646ZM208.725 482.285L209.676 482.595L209.831 482.122L209.546 481.713L208.725 482.285ZM199.626 504.078L198.703 504.461L198.875 504.876L199.3 505.023L199.626 504.078ZM151.149 421.409L151.862 420.708L151.804 420.649L151.736 420.6L151.149 421.409ZM136.792 420.314L135.893 419.875L135.802 420.062L135.793 420.269L136.792 420.314ZM172.294 505.853L173.1 505.261L173.095 505.255L173.091 505.249L172.294 505.853ZM190.764 525.524L191.693 525.894L191.905 525.362L191.553 524.91L190.764 525.524ZM168.317 576.934L167.344 577.162L167.893 579.505L169.166 577.463L168.317 576.934ZM147.378 489.056L148.312 488.7L148.27 488.589L148.202 488.49L147.378 489.056ZM123.984 450.025L124.273 449.068L123.685 448.89L123.261 449.335L123.984 450.025ZM119.977 471.065L118.988 471.216L118.991 471.233L118.994 471.251L119.977 471.065ZM135.248 551.692L136.203 551.989L136.277 551.751L136.231 551.506L135.248 551.692ZM134.141 555.259L133.306 555.809L134.469 557.575L135.096 555.555L134.141 555.259ZM100.607 494.702L99.8088 495.304L99.811 495.307L100.607 494.702ZM87.8627 482.531L88.1425 481.571L87.4303 481.364L87.025 481.985L87.8627 482.531ZM84.3269 487.954L83.4892 487.408L83.338 487.64L83.3276 487.916L84.3269 487.954ZM141.419 627.528L142.313 627.08L142.217 626.888L142.051 626.753L141.419 627.528ZM146.113 645.11L145.869 646.08L146.528 646.245L146.925 645.693L146.113 645.11ZM107.176 645.071L107.033 644.081L106.983 644.089L106.935 644.101L107.176 645.071ZM3.3513 709L2.62336 708.315L2.61795 708.32L2.61262 708.326L3.3513 709ZM6.70256 718.865L6.8003 717.869L6.67037 717.857L6.54151 717.878L6.70256 718.865ZM73.6703 700.09L73.9826 701.04L74.0153 701.029L74.0472 701.016L73.6703 700.09ZM142.418 662.951L143.413 663.05L143.602 661.16L141.936 662.074L142.418 662.951ZM122.375 845.326L123.374 845.284L123.371 845.208L123.356 845.133L122.375 845.326ZM154.312 893.594V894.594L154.627 892.644L154.312 893.594ZM178.527 881.805L179.363 882.354L179.399 882.299L179.428 882.239L178.527 881.805ZM184.64 860.221L185.632 860.099L185.614 859.954L185.556 859.821L184.64 860.221ZM155.982 751.775L154.983 751.799L154.983 751.823L154.985 751.847L155.982 751.775ZM159.674 680.045L159.084 679.237L158.795 679.449L158.705 679.796L159.674 680.045ZM196.961 656.787L196.362 655.987L196.344 655.999L196.328 656.013L196.961 656.787ZM267.365 576.08L268.259 576.527L268.341 576.364L268.359 576.182L267.365 576.08ZM267.802 571.808L268.797 571.91L268.93 570.615L267.644 570.821L267.802 571.808ZM264.619 572.317L264.461 571.33L264.332 571.35L264.214 571.403L264.619 572.317ZM185.811 641.386L186.472 642.136L186.534 642.082L186.586 642.017L185.811 641.386ZM163.987 656.234L162.992 656.131L162.901 657.021L163.775 657.211L163.987 656.234ZM187.336 584.259L187.012 583.313L186.654 583.436L186.467 583.765L187.336 584.259ZM326.457 511.69L327.151 512.41L327.256 512.309L327.328 512.182L326.457 511.69ZM322.69 505.723L322.866 506.707L322.931 506.696L322.993 506.676L322.69 505.723ZM202.836 560.695L203.23 561.614L203.3 561.584L203.365 561.543L202.836 560.695ZM194.921 557.46L193.983 557.112L193.926 557.266L193.922 557.43L194.921 557.46ZM206.294 526.763L205.391 526.334L205.372 526.374L205.356 526.416L206.294 526.763ZM217.694 501.586L217.983 500.629L217.684 500.538L217.387 500.634L217.694 501.586ZM333.47 479.765L333.74 480.728L334.016 480.651L334.209 480.438L333.47 479.765ZM333.426 472.848L332.659 473.489L332.862 473.732L333.168 473.814L333.426 472.848ZM333.174 472.547L333.941 471.905L333.72 471.64L333.382 471.568L333.174 472.547ZM222.306 487.75L221.349 487.459L220.917 488.883L222.398 488.745L222.306 487.75ZM229.519 472.989L229.266 472.022L228.972 472.099L228.77 472.326L229.519 472.989ZM336.96 409.007L336.255 408.297L336.25 408.302L336.96 409.007ZM333.533 404.978L333.586 405.977L333.666 405.973L333.744 405.956L333.533 404.978ZM245.847 451.914L246.141 452.87L246.231 452.843L246.314 452.799L245.847 451.914ZM239.016 454.012L238.046 453.769L237.615 455.488L239.309 454.968L239.016 454.012ZM240.203 449.279L239.319 448.811L239.262 448.918L239.233 449.036L240.203 449.279ZM257.324 421.621L257.045 420.661L256.799 420.732L256.617 420.913L257.324 421.621ZM319.938 388.366L320.521 389.179L320.531 389.172L320.54 389.165L319.938 388.366ZM363.868 345.468L364.753 345.935L364.81 345.827L364.839 345.708L363.868 345.468ZM364.495 342.93L365.466 343.169L365.6 342.626L365.207 342.227L364.495 342.93ZM363.283 341.7L363.994 340.998L363.705 340.704L363.292 340.7L363.283 341.7ZM360.863 341.677L360.873 340.677L360.794 340.676L360.717 340.687L360.863 341.677ZM273.523 401.788L272.947 400.97L272.932 400.981L272.918 400.991L273.523 401.788ZM266.44 399.528L265.539 399.094L265.483 399.21L265.458 399.337L266.44 399.528ZM286.868 357.155L286.425 356.259L286.117 356.411L285.967 356.721L286.868 357.155ZM381.994 286.905L381.122 286.415L381.056 286.533L381.023 286.664L381.994 286.905ZM378.554 273.612L378.192 272.68L378.093 272.718L378.004 272.776L378.554 273.612ZM315.84 326.316L316.423 327.128L316.456 327.104L316.487 327.078L315.84 326.316ZM295.67 336.224L294.771 335.786L294.369 336.611L295.157 337.083L295.67 336.224ZM309.084 306.829L308.182 306.397L308.178 306.406L308.174 306.416L309.084 306.829ZM318.785 288.917L317.994 288.305L317.993 288.306L318.785 288.917ZM416.509 186.228L417.417 186.647L417.422 186.637L417.426 186.627L416.509 186.228ZM412.386 183.047L411.918 182.163L411.818 182.216L411.733 182.29L412.386 183.047ZM332.091 256.744L331.174 256.346L330.036 258.967L332.56 257.628L332.091 256.744ZM354.733 211.891L353.98 211.233L353.965 211.25L353.95 211.269L354.733 211.891ZM423.962 91.5993L424.962 91.5993L424.962 91.5993L423.962 91.5993ZM410.382 98.5467L409.57 97.9638L409.568 97.966L410.382 98.5467ZM388.513 129.204L387.699 128.623L387.685 128.642L387.672 128.662L388.513 129.204ZM372.415 157.429L371.421 157.313L373.255 157.971L372.415 157.429ZM381.556 30.737L382.553 30.661L382.549 30.6078L382.54 30.5554L381.556 30.737ZM378.932 11.9562L377.959 12.1849L377.96 12.1878L378.932 11.9562ZM374.858 1.12403L374.858 0.124029L372.455 0.124029L374.149 1.8288L374.858 1.12403ZM156.196 615.851L156.917 616.544L157.024 616.433L157.092 616.294L156.196 615.851ZM149.813 613.206L148.896 613.604L148.92 613.66L148.951 613.713L149.813 613.206ZM145.201 582.918L145.086 581.925L144.696 581.97L144.441 582.268L145.201 582.918ZM304.586 220L305.444 219.486L305.433 219.468L305.422 219.451L304.586 220ZM326.738 239.027L327.643 239.45L327.824 239.064L327.67 238.666L326.738 239.027ZM301.254 293.522L300.258 293.434L302.16 293.946L301.254 293.522ZM296.444 207.595L297.28 207.047L295.228 203.92L295.446 207.654L296.444 207.595ZM358.226 170.227L357.996 171.2L358.936 171.421L359.19 170.491L358.226 170.227ZM350.661 155.359L349.681 155.556L349.688 155.589L349.697 155.622L350.661 155.359ZM358.158 133.457L359.142 133.277L359.004 132.522L358.239 132.46L358.158 133.457ZM423.962 1.12402L424.962 1.12402L424.962 0.124023L423.962 0.124023L423.962 1.12402ZM0.163269 1.12401L0.163269 0.124007L-0.836732 0.124007L-0.836731 1.12401L0.163269 1.12401ZM0.163862 893.594L-0.836138 893.594L-0.836137 894.594H0.163862V893.594ZM423.962 893.594V894.594H424.962V893.594H423.962ZM410.728 98.065L411.54 98.6479L411.54 98.6477L410.728 98.065ZM161.075 893.594L160.901 892.609L161.075 894.594V893.594ZM371.998 1.12399L372.648 1.88327L374.701 0.123992L371.998 0.123993L371.998 1.12399ZM217.901 466.01L218.771 466.503L218.772 466.502L217.901 466.01ZM368.768 6.99635L367.787 6.80254C364.048 25.7309 362.284 43.9041 359.92 62.24L360.912 62.3679L361.904 62.4957C364.277 44.0812 366.027 26.0312 369.749 7.19017L368.768 6.99635ZM360.912 62.3679L359.92 62.2407C358.401 74.0855 356.631 85.9888 353.897 98.268L354.873 98.4853L355.849 98.7027C358.603 86.3364 360.382 74.3641 361.904 62.4951L360.912 62.3679ZM354.873 98.4853L353.936 98.137L352.146 102.953L353.083 103.301L354.021 103.65L355.81 98.8337L354.873 98.4853ZM353.083 103.301L353.961 102.823L352.38 99.9205L351.502 100.399L350.624 100.877L352.205 103.78L353.083 103.301ZM351.502 100.399L352.454 100.092C351.785 98.0163 351.137 95.9193 350.529 93.8075L349.568 94.0843L348.607 94.361C349.222 96.4973 349.877 98.6148 350.55 100.706L351.502 100.399ZM349.568 94.0843L350.528 93.8056C347.445 83.1798 344.981 72.1267 342.591 60.9657C340.204 49.8152 337.892 38.5491 335.119 27.5477L334.149 27.7921L333.179 28.0365C335.941 38.9929 338.244 50.2098 340.636 61.3844C343.026 72.5485 345.503 83.6625 348.607 94.3629L349.568 94.0843ZM334.149 27.7921L335.082 27.4309C334.414 25.7085 333.948 23.5843 333.459 21.2906C332.977 19.0322 332.473 16.6215 331.729 14.4632C330.986 12.3093 329.965 10.2877 328.372 8.87091C326.739 7.41802 324.596 6.68182 321.809 6.94661L321.903 7.94213L321.998 8.93765C324.29 8.71994 325.866 9.3184 327.043 10.3653C328.261 11.4482 329.14 13.0914 329.838 15.1153C330.535 17.1348 331.013 19.4149 331.503 21.7082C331.985 23.966 332.481 26.2544 333.217 28.1532L334.149 27.7921ZM321.903 7.94213L321.141 7.29432C320.324 8.25537 319.734 9.6982 319.285 11.2784C318.829 12.8858 318.488 14.7536 318.231 16.6597C317.717 20.4739 317.528 24.5363 317.455 27.1722L318.455 27.1998L319.454 27.2274C319.527 24.6179 319.713 20.6372 320.213 16.9267C320.463 15.0705 320.789 13.3056 321.209 11.8245C321.637 10.3162 322.134 9.21461 322.665 8.58994L321.903 7.94213ZM318.455 27.1998L317.455 27.2188C318.203 66.5306 321.575 103.689 331.673 140.271L332.637 140.005L333.601 139.739C323.565 103.382 320.201 66.4078 319.455 27.1808L318.455 27.1998ZM332.637 140.005L331.675 140.278C331.978 141.347 332.276 142.395 332.568 143.456L333.532 143.191L334.496 142.925C334.202 141.856 333.902 140.8 333.599 139.732L332.637 140.005ZM333.532 143.191L332.545 143.355C333.395 148.469 335.336 152.953 337.568 157.152C338.683 159.249 339.879 161.289 341.048 163.296C342.221 165.309 343.368 167.291 344.41 169.305C346.491 173.33 348.12 177.43 348.628 181.997C349.134 186.553 348.53 191.636 346.049 197.628L346.973 198.011L347.897 198.393C350.494 192.119 351.162 186.698 350.615 181.776C350.07 176.867 348.323 172.519 346.186 168.387C345.118 166.322 343.947 164.299 342.776 162.289C341.601 160.272 340.427 158.269 339.334 156.213C337.15 152.106 335.318 147.84 334.518 143.027L333.532 143.191ZM346.973 198.011L346.056 197.612C339.297 213.132 338.646 215.31 334.954 220.755L335.781 221.317L336.609 221.878C340.435 216.234 341.182 213.813 347.889 198.41L346.973 198.011ZM335.781 221.317L336.766 221.144C334.083 205.811 325.159 181.758 315.711 160.551C310.981 149.934 306.106 140 301.793 132.191C299.636 128.287 297.614 124.903 295.816 122.227C294.032 119.572 292.421 117.54 291.08 116.405L290.434 117.168L289.788 117.932C290.903 118.876 292.386 120.708 294.156 123.342C295.911 125.954 297.902 129.284 300.042 133.158C304.321 140.905 309.171 150.786 313.884 161.365C323.322 182.55 332.158 206.413 334.796 221.489L335.781 221.317ZM290.434 117.168C291.106 116.428 291.106 116.428 291.106 116.428C291.106 116.427 291.105 116.427 291.105 116.427C291.105 116.426 291.104 116.426 291.103 116.425C291.102 116.424 291.1 116.422 291.097 116.42C291.092 116.415 291.084 116.408 291.075 116.4C291.056 116.383 291.03 116.36 290.995 116.329C290.926 116.269 290.827 116.182 290.7 116.075C290.447 115.861 290.085 115.564 289.646 115.229C288.773 114.562 287.567 113.721 286.282 113.075C285.03 112.446 283.546 111.92 282.171 112.08C281.454 112.163 280.76 112.433 280.172 112.966C279.591 113.492 279.174 114.221 278.909 115.124L279.868 115.406L280.827 115.688C281.016 115.046 281.27 114.67 281.515 114.448C281.754 114.231 282.042 114.108 282.401 114.066C283.177 113.976 284.221 114.278 285.384 114.862C286.513 115.429 287.608 116.188 288.431 116.818C288.84 117.13 289.176 117.406 289.409 117.603C289.525 117.701 289.615 117.779 289.675 117.832C289.705 117.858 289.728 117.878 289.742 117.891C289.749 117.898 289.755 117.902 289.758 117.905C289.76 117.907 289.761 117.908 289.761 117.908C289.762 117.909 289.762 117.909 289.762 117.909C289.762 117.909 289.762 117.909 289.762 117.909C289.762 117.909 289.761 117.908 290.434 117.168ZM279.868 115.406L278.871 115.324C276.742 141 283.42 168.198 288.648 190.381L289.621 190.151L290.595 189.922C285.348 167.659 278.767 140.789 280.864 115.489L279.868 115.406ZM289.621 190.151L290.203 189.338C289.061 188.522 287.775 186.928 286.284 184.892C284.835 182.913 283.224 180.564 281.51 178.477C279.796 176.39 277.89 174.448 275.776 173.294C273.615 172.115 271.211 171.751 268.65 172.884L269.054 173.798L269.458 174.713C271.35 173.876 273.097 174.11 274.818 175.05C276.587 176.015 278.296 177.715 279.964 179.746C281.632 181.777 283.169 184.024 284.67 186.073C286.129 188.065 287.594 189.932 289.04 190.965L289.621 190.151ZM269.054 173.798L268.072 173.609C263.939 195.072 266.751 223.522 270.564 246.556C272.474 258.091 274.641 268.303 276.332 275.651C277.178 279.326 277.904 282.286 278.421 284.337C278.679 285.363 278.885 286.162 279.026 286.709C279.097 286.984 279.151 287.192 279.188 287.335C279.206 287.408 279.22 287.46 279.228 287.494C279.233 287.512 279.235 287.521 279.235 287.524C279.245 287.566 279.225 287.49 279.218 287.404L280.214 287.321L281.211 287.237C281.208 287.209 281.202 287.166 281.2 287.15C281.198 287.14 281.195 287.123 281.193 287.115C281.19 287.1 281.187 287.086 281.185 287.077C281.18 287.057 281.175 287.035 281.17 287.014C281.159 286.97 281.144 286.911 281.125 286.838C281.088 286.693 281.033 286.48 280.962 286.209C280.822 285.664 280.617 284.87 280.36 283.849C279.847 281.808 279.123 278.862 278.281 275.203C276.597 267.884 274.439 257.714 272.537 246.229C268.729 223.222 265.975 195.076 270.036 173.987L269.054 173.798ZM280.214 287.321L279.22 287.431C279.59 290.774 280.888 293.89 282.426 296.879C283.196 298.374 284.037 299.859 284.861 301.327C285.689 302.802 286.502 304.265 287.236 305.749C288.705 308.716 289.827 311.708 290.088 314.893C290.347 318.058 289.76 321.476 287.711 325.307L288.592 325.779L289.474 326.25C291.697 322.096 292.373 318.296 292.081 314.73C291.791 311.184 290.548 307.931 289.029 304.861C288.269 303.326 287.433 301.823 286.605 300.348C285.774 298.867 284.954 297.419 284.204 295.963C282.705 293.05 281.538 290.192 281.208 287.211L280.214 287.321ZM288.592 325.779L287.689 325.351C286.477 327.907 285.279 330.617 284.091 333.316C282.901 336.02 281.723 338.71 280.544 341.249C278.171 346.359 275.857 350.712 273.556 353.23L274.294 353.905L275.032 354.58C277.57 351.803 279.996 347.178 282.358 342.091C283.547 339.53 284.735 336.818 285.922 334.122C287.11 331.421 288.298 328.735 289.496 326.207L288.592 325.779ZM274.294 353.905L275.292 353.836C274.42 341.329 272.825 329.085 270.743 317.046L269.757 317.216L268.772 317.386C270.845 329.37 272.43 341.547 273.296 353.975L274.294 353.905ZM269.757 317.216L270.743 317.045C265.914 289.151 258.527 262.217 251.885 235.149L250.914 235.387L249.943 235.625C256.602 262.763 263.959 289.583 268.772 317.387L269.757 317.216ZM250.914 235.387L251.678 234.741C251.571 234.615 251.443 234.391 251.302 234.029C251.165 233.677 251.039 233.254 250.909 232.772C250.662 231.85 250.395 230.667 250.038 229.678C249.692 228.72 249.158 227.619 248.169 227.072C247.059 226.459 245.788 226.734 244.474 227.586L245.018 228.425L245.563 229.264C246.598 228.593 247.029 228.728 247.202 228.823C247.496 228.986 247.826 229.442 248.157 230.357C248.476 231.241 248.697 232.245 248.978 233.291C249.113 233.793 249.261 234.299 249.438 234.754C249.612 235.201 249.837 235.661 250.151 236.033L250.914 235.387ZM245.018 228.425L244.375 227.66C240.718 230.737 239.82 235.095 239.555 239.453C239.424 241.621 239.445 243.907 239.393 246.04C239.34 248.209 239.212 250.277 238.797 252.176L239.774 252.389L240.751 252.603C241.208 250.51 241.339 248.286 241.393 246.089C241.447 243.855 241.423 241.699 241.552 239.574C241.809 235.346 242.662 231.715 245.662 229.19L245.018 228.425ZM239.774 252.389L238.775 252.357C237.523 291.357 244.261 320.366 256.964 350.789L257.887 350.404L258.809 350.018C246.204 319.83 239.532 291.105 240.774 252.421L239.774 252.389ZM257.887 350.404L256.965 350.792C258.154 353.616 259.408 357.02 260.794 360.49C262.165 363.924 263.65 367.379 265.256 370.152L266.122 369.651L266.987 369.15C265.459 366.511 264.018 363.171 262.651 359.749C261.299 356.363 260.002 352.85 258.808 350.016L257.887 350.404ZM266.122 369.651L265.212 369.235C263.379 373.242 261.846 376.813 260.478 380.011C259.107 383.215 257.905 386.035 256.723 388.564C254.36 393.618 252.11 397.438 248.866 400.687L249.574 401.394L250.282 402.1C253.766 398.61 256.133 394.548 258.534 389.411C259.734 386.845 260.95 383.991 262.317 380.798C263.685 377.6 265.208 374.05 267.031 370.067L266.122 369.651ZM249.574 401.394L250.554 401.192C249.333 395.255 248.196 389.238 247.062 383.229L246.079 383.414L245.097 383.6C246.23 389.606 247.37 395.639 248.595 401.595L249.574 401.394ZM246.079 383.414L247.062 383.231C241.044 350.94 235.391 318.013 219.42 289.286L218.546 289.772L217.672 290.258C233.453 318.643 239.062 351.217 245.096 383.598L246.079 383.414ZM218.546 289.772L218.62 288.775C216.178 288.592 214.383 289.388 213.166 290.886C212.003 292.317 211.458 294.279 211.196 296.282C210.93 298.303 210.936 300.507 210.982 302.521C211.028 304.575 211.111 306.384 211.026 307.755L212.024 307.817L213.022 307.879C213.114 306.396 213.025 304.441 212.981 302.476C212.936 300.47 212.935 298.399 213.179 296.542C213.425 294.666 213.905 293.147 214.718 292.147C215.476 291.215 216.605 290.63 218.471 290.769L218.546 289.772ZM212.024 307.817L211.024 307.821C211.21 349.214 216.857 385.248 234.699 417.572L235.575 417.089L236.45 416.605C218.836 384.695 213.209 349.04 213.024 307.812L212.024 307.817ZM235.575 417.089L234.701 417.574C235.804 419.559 236.964 421.52 238.221 423.47L239.061 422.929L239.902 422.387C238.672 420.479 237.534 418.556 236.449 416.603L235.575 417.089ZM239.061 422.929L238.127 422.573C232.046 438.571 224.754 451.673 217.425 464.837L218.299 465.324L219.173 465.81C226.497 452.654 233.858 439.435 239.996 423.284L239.061 422.929ZM217.827 466.14L218.246 465.232L217.194 464.747L216.776 465.655L216.357 466.563L217.408 467.048L217.827 466.14ZM216.776 465.655L217.775 465.64C217.156 425.671 205.614 386.334 187.397 352.691L186.518 353.167L185.638 353.643C203.719 387.035 215.161 426.058 215.776 465.671L216.776 465.655ZM186.518 353.167C187.358 352.626 187.358 352.625 187.358 352.625C187.358 352.625 187.357 352.624 187.357 352.623C187.356 352.622 187.355 352.62 187.354 352.618C187.351 352.614 187.347 352.608 187.342 352.6C187.332 352.585 187.318 352.563 187.299 352.535C187.261 352.478 187.207 352.396 187.136 352.292C186.996 352.084 186.791 351.788 186.534 351.432C186.021 350.72 185.292 349.759 184.432 348.768C183.575 347.781 182.572 346.745 181.509 345.894C180.46 345.055 179.275 344.334 178.055 344.079C176.77 343.811 175.467 344.074 174.379 345.149C173.353 346.163 172.603 347.819 172.105 350.159C171.107 354.851 171.011 362.841 172.425 375.755L173.419 375.646L174.413 375.538C173.003 362.654 173.134 354.935 174.062 350.575C174.527 348.389 175.166 347.183 175.785 346.571C176.343 346.019 176.942 345.89 177.647 346.037C178.417 346.198 179.311 346.697 180.26 347.456C181.195 348.204 182.109 349.143 182.922 350.079C183.731 351.012 184.423 351.923 184.912 352.602C185.157 352.94 185.349 353.22 185.481 353.413C185.546 353.51 185.596 353.585 185.629 353.636C185.646 353.661 185.658 353.68 185.666 353.692C185.67 353.698 185.673 353.703 185.675 353.705C185.676 353.707 185.676 353.708 185.677 353.708C185.677 353.708 185.677 353.708 185.677 353.709C185.677 353.709 185.677 353.708 186.518 353.167ZM173.419 375.646L172.424 375.744C176.211 414.212 186.062 451.532 207.905 482.857L208.725 482.285L209.546 481.713C187.968 450.77 178.182 413.823 174.414 375.548L173.419 375.646ZM208.725 482.285C207.775 481.974 207.775 481.974 207.775 481.975C207.775 481.975 207.775 481.975 207.774 481.975C207.774 481.976 207.774 481.977 207.773 481.978C207.773 481.981 207.771 481.985 207.77 481.99C207.766 482.001 207.761 482.016 207.754 482.037C207.74 482.079 207.72 482.142 207.693 482.223C207.639 482.386 207.56 482.626 207.459 482.931C207.256 483.54 206.964 484.41 206.608 485.453C205.895 487.54 204.928 490.312 203.906 493.063C202.882 495.82 201.812 498.533 200.893 500.51C200.43 501.505 200.024 502.274 199.698 502.762C199.53 503.013 199.419 503.134 199.37 503.176C199.27 503.262 199.524 502.985 199.952 503.132L199.626 504.078L199.3 505.023C199.951 505.248 200.471 504.867 200.675 504.692C200.928 504.474 201.157 504.177 201.36 503.874C201.775 503.254 202.233 502.372 202.706 501.353C203.66 499.302 204.753 496.528 205.781 493.76C206.811 490.986 207.785 488.195 208.5 486.099C208.858 485.051 209.152 484.176 209.356 483.562C209.458 483.255 209.538 483.014 209.592 482.849C209.62 482.767 209.64 482.703 209.654 482.661C209.661 482.639 209.667 482.623 209.67 482.612C209.672 482.607 209.674 482.602 209.674 482.6C209.675 482.598 209.675 482.597 209.676 482.596C209.676 482.596 209.676 482.596 209.676 482.596C209.676 482.595 209.676 482.595 208.725 482.285ZM199.626 504.078L200.55 503.694C188.918 475.684 172.895 442.143 151.862 420.708L151.149 421.409L150.435 422.109C171.17 443.241 187.071 476.452 198.703 504.461L199.626 504.078ZM151.149 421.409L151.736 420.6C150.056 419.379 147.225 417.068 144.354 416.102C142.889 415.609 141.292 415.42 139.759 415.979C138.209 416.545 136.9 417.812 135.893 419.875L136.792 420.314L137.691 420.752C138.538 419.016 139.508 418.2 140.445 417.858C141.4 417.509 142.498 417.588 143.716 417.998C146.214 418.838 148.708 420.872 150.561 422.218L151.149 421.409ZM136.792 420.314L135.793 420.269C134.298 453.548 153.156 482.258 171.497 506.457L172.294 505.853L173.091 505.249C154.743 481.041 136.332 452.85 137.791 420.358L136.792 420.314ZM172.294 505.853L171.488 506.445C174.218 510.162 177.602 513.472 180.899 516.643C184.221 519.838 187.441 522.881 189.975 526.138L190.764 525.524L191.553 524.91C188.912 521.514 185.57 518.361 182.286 515.202C178.978 512.02 175.714 508.821 173.1 505.261L172.294 505.853ZM190.764 525.524L189.835 525.154C181.98 544.871 178.401 558.872 167.469 576.405L168.317 576.934L169.166 577.463C180.224 559.728 183.927 545.387 191.693 525.894L190.764 525.524ZM168.317 576.934L169.291 576.706C165.868 562.1 163.324 547.23 160.275 532.386C157.233 517.574 153.698 502.852 148.312 488.7L147.378 489.056L146.443 489.411C151.772 503.412 155.281 518.01 158.316 532.789C161.345 547.537 163.914 562.529 167.344 577.162L168.317 576.934ZM147.378 489.056L148.202 488.49C147.812 487.921 147.384 486.979 146.903 485.673C146.427 484.384 145.927 482.82 145.371 481.051C144.266 477.529 142.956 473.237 141.255 468.959C137.885 460.486 132.82 451.651 124.273 449.068L123.984 450.025L123.695 450.982C131.257 453.268 136.029 461.232 139.397 469.699C141.065 473.892 142.35 478.105 143.463 481.65C144.017 483.414 144.531 485.024 145.026 486.365C145.514 487.688 146.012 488.832 146.553 489.621L147.378 489.056ZM123.984 450.025L123.261 449.335C116.709 456.198 118.155 465.768 118.988 471.216L119.977 471.065L120.966 470.913C120.109 465.31 118.927 456.771 124.707 450.716L123.984 450.025ZM119.977 471.065L118.994 471.251L134.265 551.878L135.248 551.692L136.231 551.506L120.96 470.878L119.977 471.065ZM135.248 551.692L134.293 551.396L133.186 554.962L134.141 555.259L135.096 555.555L136.203 551.989L135.248 551.692ZM134.141 555.259L134.976 554.709C129.9 546.999 124.321 535.577 118.586 524.17C112.878 512.818 107.012 501.476 101.403 494.097L100.607 494.702L99.811 495.307C105.286 502.511 111.07 513.674 116.799 525.069C122.501 536.409 128.148 547.974 133.306 555.809L134.141 555.259ZM100.607 494.702L101.406 494.1C99.6119 491.722 97.848 489.008 95.8447 486.762C93.8025 484.473 91.3937 482.519 88.1425 481.571L87.8627 482.531L87.5828 483.491C90.3478 484.297 92.4546 485.967 94.3523 488.094C96.2888 490.264 97.889 492.759 99.8088 495.304L100.607 494.702ZM87.8627 482.531L87.025 481.985L83.4892 487.408L84.3269 487.954L85.1645 488.5L88.7003 483.078L87.8627 482.531ZM84.3269 487.954L83.3276 487.916C81.2856 541.958 101.341 596.133 140.787 628.303L141.419 627.528L142.051 626.753C103.192 595.061 83.3025 541.548 85.3261 487.992L84.3269 487.954ZM141.419 627.528L140.525 627.976C141.253 629.428 142.275 630.812 143.251 632.124C144.248 633.464 145.2 634.733 145.907 636.05C146.608 637.354 147.032 638.639 147.012 639.982C146.992 641.314 146.536 642.806 145.301 644.526L146.113 645.11L146.925 645.693C148.354 643.703 148.985 641.822 149.012 640.012C149.038 638.213 148.467 636.587 147.669 635.103C146.878 633.632 145.828 632.238 144.856 630.93C143.863 629.595 142.95 628.349 142.313 627.08L141.419 627.528ZM146.113 645.11L146.357 644.14C133.547 640.919 120.142 642.185 107.033 644.081L107.176 645.071L107.319 646.061C120.408 644.168 133.472 642.963 145.869 646.08L146.113 645.11ZM107.176 645.071L106.935 644.101C67.3318 653.942 33.1935 675.859 2.62336 708.315L3.3513 709L4.07924 709.686C34.4402 677.452 68.2563 655.773 107.417 646.042L107.176 645.071ZM3.3513 709L2.61262 708.326C-0.0119109 711.202 -0.485292 714.276 0.596913 716.62C1.66352 718.931 4.15446 720.294 6.86361 719.852L6.70256 718.865L6.54151 717.878C4.70233 718.178 3.09573 717.262 2.41283 715.782C1.74554 714.337 1.87069 712.106 4.08998 709.674L3.3513 709ZM6.70256 718.865L6.60482 719.86C19.0159 721.079 30.4958 718.112 41.5338 713.989C47.0493 711.929 52.4827 709.569 57.8617 707.293C63.2518 705.012 68.5954 702.811 73.9826 701.04L73.6703 700.09L73.358 699.14C67.8853 700.939 62.4754 703.169 57.0822 705.451C51.6779 707.738 46.298 710.075 40.8341 712.116C29.9131 716.194 18.769 719.045 6.8003 717.869L6.70256 718.865ZM73.6703 700.09L74.0472 701.016C97.243 691.579 120.809 675.959 142.899 663.827L142.418 662.951L141.936 662.074C119.625 674.328 96.3522 689.782 73.2935 699.163L73.6703 700.09ZM142.418 662.951L141.423 662.852C141.263 664.449 139.575 674.758 137.205 689.893C134.841 704.99 131.81 724.817 128.981 745.366C126.152 765.913 123.524 787.191 121.966 805.189C121.187 814.187 120.675 822.376 120.54 829.249C120.406 836.103 120.645 841.712 121.393 845.519L122.375 845.326L123.356 845.133C122.651 841.547 122.406 836.117 122.54 829.288C122.673 822.476 123.182 814.336 123.958 805.361C125.512 787.413 128.135 766.172 130.962 745.639C133.789 725.107 136.818 705.294 139.181 690.202C141.539 675.149 143.246 664.722 143.413 663.05L142.418 662.951ZM122.375 845.326L121.376 845.368C121.992 860.112 126.753 885.506 153.998 894.543L154.312 893.594L154.627 892.644C128.653 884.029 123.983 859.858 123.374 845.284L122.375 845.326ZM178.527 881.805L179.428 882.239C183.541 873.704 186.526 867.332 185.632 860.099L184.64 860.221L183.647 860.344C184.456 866.891 181.798 872.715 177.626 881.371L178.527 881.805ZM184.64 860.221L185.556 859.821C170.884 826.261 159.7 789.399 156.98 751.703L155.982 751.775L154.985 751.847C157.726 789.833 168.99 826.922 183.723 860.622L184.64 860.221ZM155.982 751.775L156.982 751.751C156.364 726.13 153.815 706.845 160.642 680.294L159.674 680.045L158.705 679.796C151.789 706.692 154.369 726.367 154.983 751.799L155.982 751.775ZM159.674 680.045L160.264 680.852C165.758 676.837 171.483 673.944 177.691 670.566C183.883 667.198 190.488 663.381 197.595 657.56L196.961 656.787L196.328 656.013C189.365 661.715 182.889 665.462 176.736 668.809C170.599 672.148 164.715 675.122 159.084 679.237L159.674 680.045ZM196.961 656.787L197.561 657.587C227.088 635.461 249.241 614.663 268.259 576.527L267.365 576.08L266.47 575.634C247.639 613.394 225.745 633.969 196.362 655.987L196.961 656.787ZM267.365 576.08L268.359 576.182L268.797 571.91L267.802 571.808L266.807 571.706L266.37 575.978L267.365 576.08ZM267.802 571.808L267.644 570.821L264.461 571.33L264.619 572.317L264.777 573.305L267.96 572.796L267.802 571.808ZM264.619 572.317L264.214 571.403C234.132 584.737 208.442 612.029 185.035 640.754L185.811 641.386L186.586 642.017C209.984 613.302 235.417 586.356 265.024 573.231L264.619 572.317ZM185.811 641.386L185.15 640.635C183.846 641.783 182.225 643.392 180.471 645.09C178.702 646.802 176.773 648.63 174.807 650.268C172.835 651.91 170.862 653.332 169.008 654.255C167.138 655.186 165.52 655.543 164.199 655.256L163.987 656.234L163.775 657.211C165.745 657.638 167.86 657.06 169.899 656.046C171.954 655.023 174.065 653.489 176.087 651.805C178.114 650.116 180.087 648.245 181.862 646.527C183.651 644.796 185.215 643.243 186.472 642.136L185.811 641.386ZM163.987 656.234L164.981 656.336C167.212 634.609 175.344 607.366 188.206 584.754L187.336 584.259L186.467 583.765C173.465 606.624 165.25 634.135 162.992 656.131L163.987 656.234ZM187.336 584.259L187.661 585.205C234.928 568.978 287.124 550.973 327.151 512.41L326.457 511.69L325.763 510.97C286.105 549.177 234.343 567.064 187.012 583.313L187.336 584.259ZM326.457 511.69L327.328 512.182C328.441 510.212 328.199 508.082 327.193 506.58C326.193 505.088 324.36 504.142 322.387 504.77L322.69 505.723L322.993 506.676C323.95 506.371 324.921 506.782 325.531 507.693C326.135 508.595 326.312 509.915 325.587 511.198L326.457 511.69ZM322.69 505.723L322.514 504.738C287.889 510.922 267.372 518.733 250.706 528.017C242.385 532.653 235.04 537.647 227.405 542.957C219.765 548.271 211.838 553.9 202.306 559.846L202.836 560.695L203.365 561.543C212.949 555.564 220.925 549.901 228.547 544.599C236.176 539.293 243.452 534.348 251.68 529.765C268.113 520.61 288.409 512.861 322.866 506.707L322.69 505.723ZM202.836 560.695L202.441 559.776C201.236 560.293 199.427 560.72 198.021 560.475C197.342 560.356 196.833 560.095 196.495 559.691C196.16 559.291 195.887 558.626 195.921 557.489L194.921 557.46L193.922 557.43C193.878 558.914 194.231 560.103 194.961 560.975C195.688 561.842 196.682 562.271 197.677 562.445C199.619 562.784 201.845 562.208 203.23 561.614L202.836 560.695ZM194.921 557.46L195.859 557.807L207.232 527.111L206.294 526.763L205.356 526.416L193.983 557.112L194.921 557.46ZM206.294 526.763L207.197 527.192C209.502 522.34 211.373 516.273 213.122 511.41C214.007 508.948 214.858 506.801 215.723 505.2C216.154 504.4 216.572 503.77 216.976 503.314C217.383 502.853 217.728 502.626 218.002 502.537L217.694 501.586L217.387 500.634C216.647 500.873 216.017 501.379 215.478 501.988C214.935 502.601 214.434 503.376 213.963 504.25C213.021 505.993 212.129 508.262 211.24 510.733C209.441 515.733 207.639 521.6 205.391 526.334L206.294 526.763ZM217.694 501.586L217.405 502.543C236.983 508.45 257.116 505.466 276.783 499.801C286.62 496.967 296.374 493.453 305.9 490.025C315.439 486.592 324.745 483.248 333.74 480.728L333.47 479.765L333.2 478.802C324.124 481.345 314.748 484.715 305.223 488.143C295.685 491.575 285.993 495.067 276.229 497.879C256.696 503.505 237.012 506.37 217.983 500.629L217.694 501.586ZM333.47 479.765C334.209 480.438 334.21 480.438 334.21 480.438C334.21 480.438 334.21 480.437 334.21 480.437C334.211 480.437 334.211 480.436 334.212 480.435C334.213 480.434 334.215 480.432 334.216 480.431C334.22 480.427 334.225 480.421 334.231 480.415C334.242 480.402 334.259 480.383 334.279 480.36C334.32 480.313 334.377 480.247 334.447 480.162C334.586 479.995 334.777 479.755 334.989 479.464C335.407 478.89 335.932 478.077 336.288 477.19C336.635 476.326 336.889 475.228 336.531 474.18C336.147 473.055 335.168 472.278 333.684 471.882L333.426 472.848L333.168 473.814C334.234 474.098 334.536 474.526 334.638 474.826C334.766 475.202 334.712 475.748 334.433 476.444C334.163 477.116 333.742 477.778 333.371 478.288C333.189 478.538 333.025 478.744 332.908 478.885C332.849 478.956 332.803 479.01 332.772 479.045C332.756 479.063 332.745 479.076 332.738 479.084C332.734 479.088 332.732 479.09 332.73 479.092C332.73 479.093 332.729 479.093 332.729 479.093C332.729 479.093 332.729 479.093 332.73 479.093C332.73 479.093 332.73 479.093 332.73 479.093C332.73 479.092 332.73 479.092 333.47 479.765ZM333.426 472.848L334.193 472.206L333.941 471.905L333.174 472.547L332.407 473.188L332.659 473.489L333.426 472.848ZM333.174 472.547L333.382 471.568C298.228 464.088 273.646 467.589 256.166 473.15C247.437 475.926 240.499 479.21 234.947 481.858C232.162 483.186 229.753 484.341 227.626 485.205C225.494 486.072 223.721 486.614 222.213 486.754L222.306 487.75L222.398 488.745C224.201 488.578 226.19 487.948 228.379 487.058C230.573 486.167 233.044 484.981 235.808 483.663C241.353 481.019 248.185 477.787 256.772 475.055C273.923 469.6 298.153 466.116 332.966 473.525L333.174 472.547ZM222.306 487.75L223.263 488.04C224.881 482.702 227.138 477.186 230.267 473.652L229.519 472.989L228.77 472.326C225.338 476.201 222.982 482.072 221.349 487.459L222.306 487.75ZM229.519 472.989L229.772 473.957C270.144 463.4 305.329 442.293 337.67 409.711L336.96 409.007L336.25 408.302C304.13 440.661 269.252 461.566 229.266 472.022L229.519 472.989ZM336.96 409.007L337.665 409.716C337.978 409.405 338.306 408.839 338.533 408.26C338.766 407.667 338.969 406.87 338.854 406.082C338.728 405.214 338.217 404.41 337.18 404.007C336.239 403.642 334.964 403.647 333.323 404.001L333.533 404.978L333.744 405.956C335.245 405.633 336.057 405.717 336.456 405.872C336.759 405.989 336.843 406.147 336.875 406.369C336.919 406.67 336.844 407.09 336.672 407.529C336.59 407.737 336.497 407.924 336.41 408.07C336.367 408.142 336.329 408.2 336.298 408.243C336.265 408.288 336.25 408.303 336.255 408.297L336.96 409.007ZM333.533 404.978L333.481 403.98C317.252 404.832 302.404 412.873 288.075 422.499C273.661 432.184 259.855 443.4 245.381 451.03L245.847 451.914L246.314 452.799C260.903 445.109 274.998 433.695 289.191 424.16C303.469 414.567 317.932 406.799 333.586 405.977L333.533 404.978ZM245.847 451.914L245.554 450.959L238.722 453.056L239.016 454.012L239.309 454.968L246.141 452.87L245.847 451.914ZM239.016 454.012L239.986 454.255L241.173 449.522L240.203 449.279L239.233 449.036L238.046 453.769L239.016 454.012ZM240.203 449.279L241.086 449.747C243.533 445.131 246.308 439.732 249.22 434.734C252.14 429.723 255.148 425.205 258.03 422.329L257.324 421.621L256.617 420.913C253.539 423.985 250.424 428.697 247.492 433.727C244.553 438.771 241.749 444.226 239.319 448.811L240.203 449.279ZM257.324 421.621L257.603 422.581C280.526 415.919 300.885 403.263 320.521 389.179L319.938 388.366L319.355 387.554C299.77 401.601 279.635 414.096 257.045 420.661L257.324 421.621ZM319.938 388.366L320.54 389.165C336.126 377.416 352.989 368.239 364.753 345.935L363.868 345.468L362.984 345.002C351.486 366.801 335.148 375.649 319.336 387.568L319.938 388.366ZM363.868 345.468L364.839 345.708L365.466 343.169L364.495 342.93L363.524 342.69L362.897 345.228L363.868 345.468ZM364.495 342.93L365.207 342.227L363.994 340.998L363.283 341.7L362.571 342.402L363.783 343.632L364.495 342.93ZM363.283 341.7L363.292 340.7L360.873 340.677L360.863 341.677L360.853 342.677L363.273 342.7L363.283 341.7ZM360.863 341.677L360.717 340.687C344.069 343.148 329.353 353.192 315.235 365.061C308.173 370.998 301.207 377.44 294.226 383.644C287.231 389.862 280.2 395.858 272.947 400.97L273.523 401.788L274.099 402.605C281.448 397.426 288.547 391.367 295.555 385.139C302.577 378.898 309.487 372.506 316.522 366.592C330.595 354.76 344.947 345.039 361.009 342.666L360.863 341.677ZM273.523 401.788L272.918 400.991C272.556 401.266 271.918 401.597 271.154 401.85C270.394 402.101 269.595 402.246 268.921 402.216C268.237 402.186 267.83 401.989 267.615 401.724C267.407 401.467 267.19 400.911 267.422 399.719L266.44 399.528L265.458 399.337C265.167 400.835 265.335 402.086 266.061 402.982C266.779 403.87 267.853 404.172 268.833 404.214C269.823 404.258 270.873 404.049 271.782 403.749C272.688 403.449 273.541 403.03 274.128 402.584L273.523 401.788ZM266.44 399.528L267.341 399.962L287.769 357.59L286.868 357.155L285.967 356.721L265.539 399.094L266.44 399.528ZM286.868 357.155L287.311 358.052C331.643 336.128 355.518 318.513 368.327 306.333C374.733 300.241 378.378 295.503 380.428 292.257C381.454 290.635 382.081 289.385 382.455 288.527C382.642 288.098 382.766 287.766 382.845 287.535C382.884 287.42 382.912 287.33 382.932 287.265C382.941 287.232 382.949 287.206 382.954 287.186C382.957 287.176 382.959 287.168 382.961 287.161C382.961 287.158 382.962 287.155 382.963 287.152C382.963 287.151 382.964 287.149 382.964 287.149C382.964 287.147 382.964 287.146 381.994 286.905C381.023 286.664 381.024 286.662 381.024 286.661C381.024 286.661 381.024 286.66 381.024 286.659C381.025 286.659 381.025 286.658 381.025 286.658C381.025 286.658 381.025 286.659 381.024 286.662C381.022 286.668 381.019 286.68 381.013 286.699C381.002 286.737 380.982 286.801 380.952 286.89C380.891 287.068 380.787 287.348 380.622 287.727C380.291 288.487 379.712 289.647 378.738 291.189C376.788 294.273 373.255 298.887 366.948 304.884C354.332 316.881 330.644 334.391 286.425 356.259L286.868 357.155ZM381.994 286.905C382.866 287.394 382.866 287.394 382.866 287.394C382.866 287.393 382.867 287.393 382.867 287.393C382.867 287.392 382.868 287.391 382.869 287.389C382.87 287.386 382.872 287.383 382.875 287.378C382.881 287.368 382.889 287.353 382.899 287.334C382.92 287.297 382.95 287.242 382.988 287.172C383.064 287.032 383.173 286.828 383.306 286.572C383.571 286.06 383.934 285.336 384.326 284.484C385.103 282.792 386.014 280.547 386.479 278.443C386.711 277.393 386.842 276.328 386.766 275.36C386.69 274.395 386.398 273.428 385.686 272.704C384.958 271.963 383.933 271.621 382.698 271.629C381.481 271.636 379.991 271.981 378.192 272.68L378.554 273.612L378.916 274.544C380.602 273.89 381.834 273.634 382.711 273.629C383.57 273.623 384.012 273.854 384.26 274.106C384.524 274.374 384.717 274.819 384.772 275.517C384.827 276.212 384.735 277.063 384.526 278.012C384.107 279.909 383.265 282.002 382.508 283.649C382.133 284.466 381.784 285.161 381.53 285.651C381.403 285.896 381.3 286.089 381.229 286.22C381.194 286.285 381.166 286.335 381.148 286.368C381.139 286.384 381.132 286.397 381.128 286.405C381.126 286.409 381.124 286.412 381.123 286.413C381.123 286.414 381.122 286.415 381.122 286.415C381.122 286.415 381.122 286.415 381.122 286.415C381.122 286.415 381.122 286.415 381.994 286.905ZM378.554 273.612L378.004 272.776C353.752 288.717 339.332 305.036 315.192 325.554L315.84 326.316L316.487 327.078C340.867 306.356 354.976 290.306 379.103 274.448L378.554 273.612ZM315.84 326.316L315.257 325.503C314.007 326.4 312.434 327.689 310.759 329.015C309.064 330.357 307.231 331.763 305.394 332.957C303.549 334.156 301.752 335.104 300.132 335.568C298.512 336.031 297.201 335.974 296.183 335.366L295.67 336.224L295.157 337.083C296.834 338.085 298.78 338.034 300.681 337.491C302.582 336.947 304.573 335.876 306.484 334.634C308.403 333.387 310.296 331.932 312 330.583C313.724 329.219 315.224 327.988 316.423 327.128L315.84 326.316ZM295.67 336.224L296.569 336.663C301.004 327.568 301.516 325.926 309.995 307.242L309.084 306.829L308.174 306.416C299.67 325.156 299.191 326.723 294.771 335.786L295.67 336.224ZM309.084 306.829L309.986 307.261C312.812 301.36 316.471 293.556 319.577 289.527L318.785 288.917L317.993 288.306C314.724 292.547 310.955 300.607 308.182 306.397L309.084 306.829ZM318.785 288.917L319.576 289.528C325.399 281.997 332.021 276.904 339.316 272.223C346.552 267.582 354.659 263.231 363.05 257.393C379.995 245.601 398.617 227.443 417.417 186.647L416.509 186.228L415.601 185.81C396.938 226.308 378.538 244.179 361.907 255.751C353.51 261.594 345.69 265.759 338.236 270.54C330.842 275.283 324.011 280.522 317.994 288.305L318.785 288.917ZM416.509 186.228L417.426 186.627C417.81 185.742 417.928 184.873 417.758 184.081C417.586 183.281 417.134 182.629 416.508 182.186C415.27 181.311 413.502 181.324 411.918 182.163L412.386 183.047L412.855 183.93C413.948 183.351 414.879 183.484 415.353 183.819C415.583 183.981 415.739 184.207 415.802 184.501C415.867 184.803 415.846 185.244 415.592 185.83L416.509 186.228ZM412.386 183.047L411.733 182.29C400.569 191.932 381.703 209.724 365.038 225.408C356.7 233.256 348.91 240.577 342.899 246.1C339.893 248.862 337.337 251.168 335.382 252.863C334.404 253.711 333.583 254.401 332.935 254.916C332.267 255.446 331.838 255.747 331.622 255.861L332.091 256.744L332.56 257.628C332.958 257.416 333.519 257.006 334.179 256.482C334.86 255.941 335.705 255.231 336.693 254.374C338.669 252.66 341.241 250.338 344.252 247.573C350.274 242.04 358.073 234.71 366.409 226.865C383.092 211.164 401.918 193.41 413.04 183.803L412.386 183.047ZM332.091 256.744L333.008 257.142C334.691 253.266 339.417 243.235 344.19 233.583C346.575 228.76 348.967 224.04 350.992 220.239C353.037 216.399 354.659 213.591 355.516 212.513L354.733 211.891L353.95 211.269C352.956 212.52 351.245 215.51 349.227 219.298C347.189 223.125 344.787 227.865 342.397 232.697C337.621 242.357 332.877 252.422 331.174 256.346L332.091 256.744ZM354.733 211.891L355.486 212.549C371.368 194.375 384.812 179.827 396.228 162.024C407.662 144.194 417.053 123.12 424.932 91.8435L423.962 91.5993L422.993 91.355C415.158 122.458 405.843 143.325 394.545 160.944C383.23 178.59 369.916 192.998 353.98 211.233L354.733 211.891ZM410.382 98.5467L409.568 97.966L387.699 128.623L388.513 129.204L389.327 129.785L411.196 99.1274L410.382 98.5467ZM388.513 129.204L387.672 128.662C386.349 130.715 383.308 136.254 380.128 141.996C376.926 147.779 373.57 153.792 371.574 156.887L372.415 157.429L373.255 157.971C375.296 154.806 378.69 148.722 381.878 142.965C385.088 137.168 388.077 131.725 389.353 129.746L388.513 129.204ZM372.415 157.429L373.408 157.545C377.957 118.598 385.358 67.4708 382.553 30.661L381.556 30.737L380.559 30.813C383.345 67.374 375.987 118.228 371.421 157.313L372.415 157.429ZM381.556 30.737L382.54 30.5554C381.991 27.5876 381.698 24.4465 381.358 21.2367C381.021 18.0481 380.638 14.8033 379.905 11.7246L378.932 11.9562L377.96 12.1878C378.66 15.1283 379.032 18.2581 379.37 21.4472C379.705 24.6151 380.007 27.8548 380.573 30.9186L381.556 30.737ZM378.932 11.9562L379.906 11.7274C379.67 10.7248 379.487 9.74876 379.29 8.76205C379.095 7.7862 378.889 6.80643 378.614 5.85279C378.059 3.92943 377.214 2.07692 375.568 0.419256L374.858 1.12403L374.149 1.8288C375.486 3.17461 376.197 4.68966 376.692 6.40725C376.942 7.27408 377.135 8.18313 377.329 9.15311C377.52 10.1122 377.713 11.139 377.959 12.1849L378.932 11.9562ZM156.196 615.851L155.475 615.158C154.822 615.838 154.325 616.008 153.989 616.024C153.643 616.04 153.263 615.903 152.831 615.564C151.922 614.849 151.192 613.578 150.675 612.698L149.813 613.206L148.951 613.713C149.405 614.485 150.327 616.139 151.596 617.137C152.254 617.654 153.095 618.068 154.083 618.022C155.08 617.975 156.03 617.468 156.917 616.544L156.196 615.851ZM149.813 613.206L150.73 612.807C150.622 612.557 150.309 612.021 149.951 611.392C149.568 610.719 149.067 609.832 148.511 608.779C147.398 606.671 146.07 603.911 145.025 600.902C142.901 594.787 142.096 588.084 145.961 583.569L145.201 582.918L144.441 582.268C139.81 587.678 140.99 595.38 143.136 601.559C144.226 604.697 145.603 607.555 146.743 609.713C147.313 610.794 147.826 611.702 148.213 612.382C148.409 612.725 148.568 613.002 148.69 613.22C148.751 613.329 148.799 613.417 148.836 613.486C148.854 613.52 148.869 613.548 148.879 613.569C148.884 613.58 148.888 613.588 148.891 613.594C148.893 613.597 148.894 613.6 148.895 613.601C148.895 613.603 148.895 613.602 148.895 613.603C148.896 613.604 148.895 613.603 148.896 613.604L149.813 613.206ZM145.201 582.918L145.316 583.912C145.494 583.891 145.907 583.983 146.583 584.592C147.226 585.171 147.947 586.075 148.706 587.264C150.217 589.633 151.768 592.964 153.058 596.583C154.346 600.2 155.357 604.057 155.809 607.469C156.268 610.935 156.123 613.744 155.3 615.408L156.196 615.851L157.092 616.294C158.197 614.062 158.259 610.735 157.792 607.206C157.317 603.623 156.265 599.626 154.942 595.912C153.62 592.201 152.008 588.723 150.392 586.189C149.586 584.926 148.753 583.854 147.921 583.106C147.124 582.388 146.145 581.802 145.086 581.925L145.201 582.918ZM304.586 220L303.728 220.514C306.603 225.311 311.403 227.495 315.655 229.73C319.981 232.004 323.86 234.363 325.805 239.388L326.738 239.027L327.67 238.666C325.438 232.898 320.941 230.249 316.585 227.96C312.156 225.631 307.968 223.698 305.444 219.486L304.586 220ZM326.738 239.027L325.832 238.603L300.348 293.098L301.254 293.522L302.16 293.946L327.643 239.45L326.738 239.027ZM301.254 293.522L302.25 293.61C303.833 275.7 302.887 258.656 301.419 243.852C299.944 228.976 297.967 216.539 297.443 207.537L296.444 207.595L295.446 207.654C295.972 216.676 297.975 229.38 299.429 244.049C300.891 258.792 301.825 275.699 300.258 293.434L301.254 293.522ZM296.444 207.595L295.608 208.144L303.75 220.548L304.586 220L305.422 219.451L297.28 207.047L296.444 207.595ZM358.226 170.227L358.455 169.254C357.585 169.049 356.806 168.491 356.089 167.587C355.366 166.676 354.747 165.463 354.2 164.056C353.095 161.218 352.387 157.887 351.626 155.096L350.661 155.359L349.697 155.622C350.414 158.253 351.181 161.813 352.336 164.781C352.918 166.278 353.624 167.698 354.522 168.829C355.424 169.967 356.56 170.862 357.996 171.2L358.226 170.227ZM350.661 155.359L351.642 155.161C349.361 143.838 351.292 138.774 353.411 136.512C354.478 135.373 355.663 134.862 356.581 134.632C357.042 134.517 357.433 134.473 357.703 134.458C357.837 134.451 357.94 134.45 358.005 134.452C358.038 134.452 358.061 134.453 358.073 134.454C358.079 134.454 358.083 134.454 358.084 134.454C358.084 134.454 358.084 134.454 358.083 134.454C358.082 134.454 358.082 134.454 358.081 134.454C358.08 134.454 358.08 134.454 358.079 134.454C358.078 134.454 358.078 134.454 358.158 133.457C358.239 132.46 358.238 132.46 358.237 132.46C358.236 132.46 358.235 132.46 358.234 132.46C358.233 132.46 358.231 132.46 358.229 132.46C358.225 132.459 358.22 132.459 358.215 132.459C358.204 132.458 358.191 132.457 358.174 132.456C358.141 132.455 358.096 132.453 358.041 132.452C357.931 132.45 357.779 132.451 357.591 132.461C357.217 132.482 356.698 132.541 356.096 132.692C354.888 132.994 353.335 133.668 351.952 135.145C349.17 138.114 347.353 144.001 349.681 155.556L350.661 155.359ZM358.158 133.457L357.174 133.637C359.057 143.945 360.533 158.009 357.261 169.963L358.226 170.227L359.19 170.491C362.586 158.084 361.036 143.648 359.142 133.277L358.158 133.457ZM423.962 91.5993L424.962 91.5993L424.962 1.12402L423.962 1.12402L422.962 1.12402L422.962 91.5993L423.962 91.5993ZM0.163269 1.12401L-0.836731 1.12401L-0.836138 893.594L0.163862 893.594L1.16386 893.594L1.16327 1.12401L0.163269 1.12401ZM423.962 91.5993H422.962V893.594H423.962H424.962V91.5993H423.962ZM410.382 98.5467L411.195 99.1296L411.54 98.6479L410.728 98.065L409.915 97.4821L409.57 97.9638L410.382 98.5467ZM410.728 98.065L411.54 98.6477C412.677 97.0634 413.826 95.461 414.974 94.0439C416.128 92.6196 417.237 91.437 418.279 90.6661C419.337 89.8835 420.16 89.6456 420.805 89.7754C421.433 89.9017 422.232 90.447 423.076 92.0624L423.962 91.5993L424.849 91.1361C423.88 89.2834 422.685 88.1133 421.199 87.8146C419.731 87.5195 418.321 88.1471 417.09 89.0584C415.842 89.9814 414.606 91.3209 413.42 92.785C412.228 94.2561 411.044 95.9082 409.915 97.4823L410.728 98.065ZM0.163862 893.594V894.594H154.312V893.594V892.594H0.163862V893.594ZM178.527 881.805L177.691 881.255C173.655 887.393 167.16 891.506 160.901 892.609L161.075 893.594L161.248 894.578C168.063 893.378 175.031 888.941 179.363 882.354L178.527 881.805ZM368.768 6.99635C369.723 7.2943 369.723 7.29443 369.723 7.29453C369.723 7.29455 369.723 7.29464 369.723 7.29467C369.723 7.29473 369.723 7.29472 369.723 7.29466C369.723 7.29452 369.723 7.29413 369.723 7.29349C369.724 7.29221 369.724 7.28993 369.725 7.28668C369.727 7.28017 369.731 7.26977 369.735 7.25569C369.744 7.22752 369.758 7.18464 369.777 7.12871C369.815 7.01679 369.871 6.85295 369.945 6.65037C370.092 6.24429 370.308 5.6873 370.58 5.08342C371.144 3.82964 371.877 2.5441 372.648 1.88327L371.998 1.12399L371.347 0.364718C370.212 1.33777 369.33 2.98841 368.756 4.26234C368.459 4.92231 368.225 5.52706 368.065 5.96675C367.985 6.18706 367.923 6.36711 367.881 6.49337C367.86 6.55652 367.843 6.6063 367.832 6.64102C367.826 6.65838 367.822 6.67198 367.819 6.68161C367.818 6.68643 367.816 6.69025 367.815 6.69306C367.815 6.69446 367.815 6.69561 367.814 6.6965C367.814 6.69695 367.814 6.69733 367.814 6.69765C367.814 6.69781 367.814 6.69799 367.814 6.69807C367.814 6.69825 367.814 6.6984 368.768 6.99635ZM371.998 1.12399L371.998 0.123993L0.163269 0.124007L0.163269 1.12401L0.163269 2.12401L371.998 2.12399L371.998 1.12399ZM217.827 466.14L218.698 466.633L218.771 466.503L217.901 466.01L217.031 465.518L216.957 465.648L217.827 466.14ZM217.901 466.01L218.772 466.502C218.902 466.271 219.027 466.051 219.152 465.846L218.299 465.324L217.446 464.802C217.299 465.042 217.158 465.292 217.03 465.518L217.901 466.01ZM423.962 1.12402L423.962 0.124023L374.858 0.124029L374.858 1.12403L374.858 2.12403L423.962 2.12402L423.962 1.12402ZM161.075 893.594V894.594H423.962V893.594V892.594H161.075V893.594Z" fill="white" mask="url(#path-1-inside-1_46_14)"/>
</svg>
