<svg width="293" height="1094" viewBox="0 0 293 1094" fill="none" xmlns="http://www.w3.org/2000/svg">
<path d="M286 1088.87V1093.87H290.725L290.992 1089.15L286 1088.87ZM6.07227 1088.87L1.08025 1089.15L1.34718 1093.87H6.07227V1088.87ZM268 851.367H273V848.836L270.96 847.337L268 851.367ZM27.5 851.367L24.54 847.337L22.5 848.836V851.367H27.5ZM204 827.867L199.214 829.314L200.303 832.915L204.064 832.866L204 827.867ZM247 865.367L247.08 870.366L252 870.287V865.367H247ZM204 676.867L208.835 678.141L208.997 677.527L209 676.891L204 676.867ZM197 566.867L192.176 565.554L191.911 566.524L192.043 567.522L197 566.867ZM207.5 355.367L202.527 354.847L202.458 355.51L202.565 356.168L207.5 355.367ZM197 162.867L194.628 167.268L195.142 167.545L195.705 167.696L197 162.867ZM254 181.867L251.117 185.952L251.897 186.502L252.825 186.727L254 181.867ZM247.5 305.367L252.365 306.521L252.401 306.367L252.428 306.212L247.5 305.367ZM212.5 338.867L209.135 342.565L210.532 343.836L212.419 343.866L212.5 338.867ZM172 143.867L167.873 146.69L168.096 147.016L168.367 147.302L172 143.867ZM140.5 115.5L139.828 110.545L139.292 110.618L138.785 110.803L140.5 115.5ZM157 108.867L159.309 113.302L160.694 112.58L161.423 111.199L157 108.867ZM174 51.8668L169.006 51.6136L169 51.7401V51.8668H174ZM174 22.8668L169.019 23.2981L169.019 23.2981L174 22.8668ZM141.5 5.5V0.5H141.118L140.74 0.558142L141.5 5.5ZM84.5823 162.867L85.8768 167.696L86.4407 167.545L86.9546 167.268L84.5823 162.867ZM27.5823 181.867L28.7571 186.727L29.6854 186.502L30.4657 185.952L27.5823 181.867ZM34.0823 305.367L29.1542 306.212L29.1809 306.367L29.2173 306.521L34.0823 305.367ZM69.0823 338.867L69.163 343.866L71.0505 343.836L72.4469 342.565L69.0823 338.867ZM109.582 143.867L113.215 147.302L113.486 147.016L113.709 146.69L109.582 143.867ZM124.582 108.867L120.159 111.199L120.646 112.122L121.461 112.773L124.582 108.867ZM107.582 51.8668H112.582V51.7401L112.576 51.6136L107.582 51.8668ZM107.582 22.8668L112.564 23.2981L112.564 23.2981L107.582 22.8668ZM46.5 865.367H41.5V870.287L46.4198 870.366L46.5 865.367ZM89.5 676.867L84.5001 676.891L84.5032 677.527L84.6651 678.141L89.5 676.867ZM96.5 566.867L101.457 567.522L101.589 566.524L101.324 565.554L96.5 566.867ZM86 355.367L90.9354 356.168L91.0422 355.51L90.9729 354.847L86 355.367ZM163.5 244.367L158.981 246.507L159.503 247.608L160.472 248.345L163.5 244.367ZM150 215.867L154.519 213.726L153.752 212.107L152.131 211.344L150 215.867ZM121.5 209.367L122.071 204.399L121.272 204.308L120.484 204.471L121.5 209.367ZM104.5 220.367L100.117 217.96L98.8879 220.199L99.9813 222.507L104.5 220.367ZM109 229.867L113.623 227.962L113.574 227.843L113.519 227.726L109 229.867ZM118.5 244.367L114.966 247.904L115.146 248.084L115.344 248.245L118.5 244.367ZM140 261.867L144.84 260.612L144.428 259.024L143.156 257.989L140 261.867ZM209 233.867L205.842 229.991L204 231.491V233.867H209ZM222.5 222.867L225.658 226.743L227.5 225.242V222.867H222.5ZM69.5 233.867H74.5V231.491L72.6584 229.991L69.5 233.867ZM56 222.867H51V225.242L52.8416 226.743L56 222.867ZM179.5 244.367L181.016 249.131L182.418 248.685L183.355 247.551L179.5 244.367ZM189 232.867L192.855 236.051L194.27 234.338L193.947 232.139L189 232.867ZM186.5 215.867L191.447 215.139L191.116 212.89L189.204 211.661L186.5 215.867ZM179.5 211.367L182.204 207.161L180.969 206.367H179.5V211.367ZM153.5 211.367V206.367H150.251L148.931 209.336L153.5 211.367ZM80.5 338.367L75.9043 340.336L75.9257 340.386L75.9482 340.436L80.5 338.367ZM251.643 846.134C254.402 846.24 256.725 844.089 256.831 841.329C256.937 838.57 254.786 836.247 252.027 836.141L251.643 846.134ZM246.671 846.293C248.969 847.825 252.073 847.204 253.605 844.907C255.137 842.609 254.516 839.505 252.218 837.973L246.671 846.293ZM202.304 833.091C204.46 834.816 207.607 834.467 209.332 832.31C211.057 830.154 210.707 827.008 208.551 825.283L202.304 833.091ZM203.635 828.689L207.539 825.565L207.539 825.565L203.635 828.689ZM205.074 823.52C202.604 822.285 199.601 823.286 198.366 825.756C197.131 828.226 198.132 831.229 200.602 832.464L205.074 823.52ZM45.376 846.29C48.1161 846.632 50.615 844.689 50.9575 841.949C51.3 839.209 49.3564 836.71 46.6163 836.367L45.376 846.29ZM43.2226 843.479C45.5203 845.011 48.6246 844.39 50.1564 842.092C51.6881 839.794 51.0673 836.69 48.7696 835.158L43.2226 843.479ZM3 1093.87H286V1083.87H3V1093.87ZM290.992 1089.15C292.757 1057.95 292.499 1037.34 289.186 1023.95C287.503 1017.14 284.938 1011.78 281.097 1007.81C277.204 1003.79 272.405 1001.61 267.034 1000.47L264.966 1010.26C268.936 1011.1 271.749 1012.53 273.911 1014.76C276.124 1017.05 278.055 1020.59 279.479 1026.35C282.38 1038.08 282.781 1057.24 281.008 1088.58L290.992 1089.15ZM289.072 1083.87H6.07227V1093.87H289.072V1083.87ZM11.0643 1088.58C9.29102 1057.24 9.69244 1038.08 12.5936 1026.35C14.0172 1020.59 15.9485 1017.05 18.1612 1014.76C20.3233 1012.53 23.1366 1011.1 27.1061 1010.26L25.0384 1000.47C19.6672 1001.61 14.8678 1003.79 10.9756 1007.81C7.13416 1011.78 4.5696 1017.14 2.88605 1023.95C-0.426951 1037.34 -0.684784 1057.95 1.08025 1089.15L11.0643 1088.58ZM273 1005.87V851.367H263V1005.87H273ZM270.96 847.337C262.574 841.177 258.495 839.229 252.06 837.116L248.94 846.617C254.228 848.353 257.374 849.766 265.04 855.397L270.96 847.337ZM32.5 1005.87V851.367H22.5V1005.87H32.5ZM30.46 855.397C38.1256 849.766 41.2718 848.353 46.5596 846.617L43.4404 837.116C37.0048 839.229 32.9259 841.177 24.54 847.337L30.46 855.397ZM254.033 836.829C246.847 829.651 239.707 825.968 231.403 824.232C223.427 822.565 214.442 822.732 203.936 822.867L204.064 832.866C214.952 832.726 222.692 832.627 229.356 834.021C235.692 835.345 241.105 838.05 246.967 843.904L254.033 836.829ZM48.5334 843.904C54.3947 838.05 59.8079 835.345 66.1436 834.021C72.8076 832.627 80.5481 832.726 91.4356 832.866L91.5644 822.867C81.0582 822.732 72.0726 822.565 64.097 824.232C55.7932 825.968 48.6532 829.651 41.4666 836.829L48.5334 843.904ZM242 841.367V865.367H252V841.367H242ZM246.92 860.367C196.571 861.176 177.621 861.022 149.617 860.368L149.383 870.365C177.548 871.024 196.633 871.176 247.08 870.366L246.92 860.367ZM208.786 826.419C199.966 797.255 196.205 774.774 196.484 752.429C196.763 730.035 201.099 707.494 208.835 678.141L199.165 675.593C191.36 705.209 186.779 728.683 186.484 752.305C186.19 775.975 190.2 799.51 199.214 829.314L208.786 826.419ZM209 676.891C209.251 625.873 206.902 603.63 201.957 566.212L192.043 567.522C196.942 604.591 199.248 626.37 199 676.842L209 676.891ZM201.824 568.18C212.91 527.45 219.042 495.219 220.64 462.499C222.237 429.784 219.292 396.795 212.435 354.565L202.565 356.168C209.364 398.042 212.202 430.269 210.652 462.011C209.102 493.747 203.155 525.214 192.176 565.554L201.824 568.18ZM212.473 355.886C212.95 351.325 213.407 349.165 213.817 348.024C214.083 347.283 214.239 347.12 214.815 346.61L208.185 339.123C206.764 340.382 205.4 341.875 204.405 344.644C203.555 347.013 203.011 350.22 202.527 354.847L212.473 355.886ZM141.5 870.367H152V860.367H141.5V870.367ZM197 162.867C195.705 167.696 195.706 167.696 195.706 167.696C195.706 167.696 195.706 167.697 195.707 167.697C195.708 167.697 195.71 167.698 195.713 167.698C195.718 167.7 195.727 167.702 195.738 167.705C195.76 167.711 195.794 167.72 195.839 167.732C195.929 167.757 196.064 167.793 196.241 167.841C196.594 167.936 197.115 168.078 197.782 168.26C199.116 168.625 201.033 169.153 203.361 169.806C208.019 171.113 214.312 172.915 220.861 174.902C227.421 176.891 234.19 179.051 239.818 181.072C245.692 183.182 249.644 184.912 251.117 185.952L256.883 177.782C254.106 175.821 248.808 173.676 243.198 171.661C237.341 169.558 230.391 167.342 223.764 165.332C217.126 163.319 210.762 161.496 206.061 160.178C203.71 159.518 201.771 158.984 200.419 158.614C199.743 158.429 199.214 158.286 198.853 158.188C198.672 158.139 198.533 158.102 198.439 158.076C198.392 158.064 198.357 158.054 198.332 158.047C198.32 158.044 198.311 158.042 198.305 158.04C198.302 158.039 198.299 158.039 198.297 158.038C198.297 158.038 198.296 158.038 198.295 158.038C198.295 158.037 198.295 158.037 197 162.867ZM252.825 186.727C254.047 187.022 256.037 188.437 257.035 195.124C257.979 201.453 257.661 210.486 256.398 221.754C253.876 244.26 247.858 273.697 242.572 304.522L252.428 306.212C257.624 275.911 263.771 245.754 266.336 222.868C267.616 211.441 268.072 201.329 266.926 193.648C265.833 186.326 262.868 178.867 255.175 177.007L252.825 186.727ZM242.635 304.213C239.681 316.668 236.785 323.87 232.65 328.092C228.837 331.984 223.218 334.039 212.581 333.867L212.419 343.866C224.279 344.058 233.207 341.813 239.793 335.09C246.057 328.696 249.413 318.967 252.365 306.521L242.635 304.213ZM215.865 335.168L143.865 269.668L137.135 277.065L209.135 342.565L215.865 335.168ZM199.372 158.465C187.856 152.258 183.084 148.311 175.633 140.431L168.367 147.302C176.523 155.926 182.138 160.536 194.628 167.268L199.372 158.465ZM176.127 141.044C172.764 136.129 171.06 132.453 170.186 128.795C169.296 125.075 169.178 121.023 169.493 115.134L159.507 114.6C159.178 120.756 159.229 125.969 160.46 131.12C161.705 136.333 164.073 141.134 167.873 146.69L176.127 141.044ZM141.172 120.455C146.573 119.722 150.522 117.876 159.309 113.302L154.691 104.432C145.744 109.09 143.258 110.08 139.828 110.545L141.172 120.455ZM161.423 111.199C166.706 101.177 174.539 84.4643 176.569 79.8975L167.431 75.836C165.461 80.2691 157.726 96.7689 152.577 106.535L161.423 111.199ZM176.569 79.8975C177.439 77.9396 177.859 74.966 178.128 72.4338C178.426 69.6332 178.619 66.4042 178.746 63.3896C178.873 60.3618 178.937 57.486 178.968 55.3713C178.984 54.3125 178.992 53.4409 178.996 52.8321C178.998 52.5276 178.999 52.2887 178.999 52.1247C179 52.0427 179 51.9794 179 51.936C179 51.9144 179 51.8976 179 51.886C179 51.8802 179 51.8757 179 51.8725C179 51.8709 179 51.8696 179 51.8686C179 51.8682 179 51.8677 179 51.8675C179 51.8671 179 51.8668 174 51.8668C169 51.8668 169 51.8666 169 51.8665C169 51.8666 169 51.8666 169 51.8668C169 51.8672 169 51.8678 169 51.8688C169 51.8708 169 51.8741 169 51.8787C169 51.8878 169 51.902 169 51.9211C169 51.9593 169 52.0173 169 52.0939C168.999 52.2471 168.998 52.4744 168.996 52.7666C168.992 53.3512 168.985 54.1945 168.969 55.2215C168.938 57.2788 168.877 60.0592 168.754 62.9689C168.631 65.8918 168.449 68.8815 168.184 71.3778C168.051 72.6278 167.904 73.6937 167.746 74.5341C167.668 74.9523 167.593 75.2793 167.527 75.5231C167.457 75.7813 167.417 75.8667 167.431 75.836L176.569 79.8975ZM174 51.8668C178.994 52.1199 178.994 52.1196 178.994 52.1193C178.994 52.1191 178.994 52.1187 178.994 52.1182C178.994 52.1174 178.994 52.1163 178.994 52.115C178.994 52.1122 178.994 52.1084 178.994 52.1034C178.995 52.0935 178.996 52.0792 178.997 52.0607C178.998 52.0236 179.001 51.9693 179.004 51.8987C179.011 51.7576 179.021 51.5511 179.033 51.2855C179.057 50.7545 179.09 49.987 179.127 49.0336C179.2 47.1281 179.288 44.4747 179.347 41.4804C179.463 35.5499 179.469 28.0731 178.981 22.4355L169.019 23.2981C169.458 28.3688 169.464 35.3919 169.349 41.2844C169.291 44.2015 169.206 46.7903 169.134 48.6491C169.098 49.5779 169.066 50.3231 169.043 50.8342C169.032 51.0897 169.022 51.2867 169.016 51.4187C169.013 51.4847 169.01 51.5345 169.009 51.5672C169.008 51.5836 169.007 51.5957 169.007 51.6035C169.007 51.6074 169.007 51.6102 169.006 51.6119C169.006 51.6127 169.006 51.6133 169.006 51.6136C169.006 51.6137 169.006 51.6137 169.006 51.6138C169.006 51.6138 169.006 51.6136 174 51.8668ZM178.981 22.4355C178.553 17.4873 174.928 13.9172 171.654 11.5711C168.181 9.08297 163.838 7.06694 159.757 5.49999C155.627 3.91415 151.511 2.69334 148.339 1.86855C146.748 1.45513 145.369 1.13456 144.316 0.913517C143.792 0.803592 143.324 0.713314 142.938 0.647822C142.719 0.610557 142.089 0.5 141.5 0.5V10.5C141.098 10.5 140.88 10.4415 141.266 10.507C141.485 10.5442 141.819 10.6075 142.263 10.7005C143.144 10.8854 144.368 11.1687 145.823 11.5468C148.739 12.3051 152.481 13.4182 156.173 14.8355C159.913 16.2717 163.356 17.9281 165.83 19.7001C168.501 21.6142 168.983 22.8921 169.019 23.2981L178.981 22.4355ZM84.5823 162.867C83.2878 158.037 83.2874 158.037 83.2869 158.038C83.2864 158.038 83.2857 158.038 83.2849 158.038C83.2832 158.039 83.2807 158.039 83.2776 158.04C83.2712 158.042 83.262 158.044 83.2498 158.047C83.2256 158.054 83.1898 158.064 83.1428 158.076C83.0489 158.102 82.9102 158.139 82.7296 158.188C82.3682 158.286 81.8388 158.429 81.1628 158.614C79.8111 158.984 77.8728 159.518 75.5211 160.178C70.8201 161.496 64.4563 163.319 57.8185 165.332C51.1912 167.342 44.2409 169.558 38.3843 171.661C32.7739 173.676 27.4767 175.821 24.6989 177.782L30.4657 185.952C31.9378 184.912 35.8907 183.182 41.7647 181.072C47.3924 179.051 54.1609 176.891 60.7211 174.902C67.2708 172.915 73.5632 171.113 78.2216 169.806C80.5496 169.153 82.4668 168.625 83.8005 168.26C84.4674 168.078 84.9882 167.936 85.3415 167.841C85.5181 167.793 85.6528 167.757 85.743 167.732C85.788 167.72 85.8219 167.711 85.8443 167.705C85.8555 167.702 85.8639 167.7 85.8693 167.698C85.872 167.698 85.874 167.697 85.8752 167.697C85.8759 167.697 85.8763 167.696 85.8766 167.696C85.8768 167.696 85.8768 167.696 84.5823 162.867ZM26.4074 177.007C18.7141 178.867 15.7493 186.326 14.6567 193.648C13.5105 201.329 13.966 211.441 15.2466 222.868C17.8115 245.754 23.9584 275.911 29.1542 306.212L39.0103 304.522C33.7248 273.697 27.7067 244.26 25.1844 221.754C23.9214 210.486 23.6028 201.453 24.5472 195.124C25.5451 188.437 27.5354 187.022 28.7571 186.727L26.4074 177.007ZM29.2173 306.521C32.1695 318.967 35.5257 328.696 41.789 335.09C48.3753 341.813 57.3031 344.058 69.163 343.866L69.0016 333.867C58.3642 334.039 52.7453 331.984 48.9326 328.092C44.7969 323.87 41.9018 316.668 38.9473 304.213L29.2173 306.521ZM72.4469 342.565L144.447 277.065L137.718 269.668L65.7176 335.168L72.4469 342.565ZM86.9546 167.268C99.4439 160.536 105.059 155.926 113.215 147.302L105.949 140.431C98.4981 148.311 93.7265 152.258 82.2099 158.465L86.9546 167.268ZM113.709 146.69C117.51 141.134 119.877 136.333 121.123 131.12C122.354 125.969 122.404 120.756 122.075 114.6L112.089 115.134C112.404 121.023 112.286 125.075 111.397 128.795C110.522 132.453 108.818 136.129 105.455 141.044L113.709 146.69ZM138.785 110.803C139.61 110.502 140.22 110.559 139.935 110.557C139.892 110.557 139.72 110.551 139.413 110.512C138.81 110.435 137.873 110.254 136.69 109.882C134.334 109.143 131.117 107.688 127.703 104.96L121.461 112.773C125.921 116.336 130.26 118.345 133.694 119.423C135.406 119.96 136.921 120.276 138.148 120.432C138.756 120.51 139.343 120.554 139.881 120.557C140.176 120.559 141.189 120.571 142.215 120.197L138.785 110.803ZM129.005 106.535C123.856 96.7689 116.122 80.2691 114.151 75.836L105.013 79.8975C107.043 84.4643 114.876 101.177 120.159 111.199L129.005 106.535ZM114.151 75.836C114.165 75.8667 114.126 75.7813 114.056 75.5231C113.989 75.2793 113.915 74.9523 113.836 74.5341C113.678 73.6937 113.531 72.6278 113.398 71.3778C113.133 68.8815 112.951 65.8918 112.828 62.9689C112.705 60.0592 112.644 57.2788 112.613 55.2215C112.598 54.1945 112.59 53.3512 112.586 52.7666C112.584 52.4744 112.583 52.2471 112.583 52.0939C112.583 52.0173 112.582 51.9593 112.582 51.9211C112.582 51.902 112.582 51.8878 112.582 51.8787C112.582 51.8741 112.582 51.8708 112.582 51.8688C112.582 51.8678 112.582 51.8672 112.582 51.8668C112.582 51.8666 112.582 51.8666 112.582 51.8665C112.582 51.8666 112.582 51.8668 107.582 51.8668C102.582 51.8668 102.582 51.8671 102.582 51.8675C102.582 51.8677 102.582 51.8682 102.582 51.8686C102.582 51.8696 102.582 51.8709 102.582 51.8725C102.582 51.8757 102.582 51.8802 102.582 51.886C102.582 51.8976 102.582 51.9144 102.582 51.936C102.582 51.9794 102.583 52.0427 102.583 52.1247C102.583 52.2887 102.584 52.5276 102.586 52.8321C102.59 53.4409 102.598 54.3125 102.614 55.3713C102.646 57.486 102.709 60.3618 102.837 63.3896C102.964 66.4042 103.157 69.6332 103.454 72.4338C103.723 74.966 104.143 77.9396 105.013 79.8975L114.151 75.836ZM107.582 51.8668C112.576 51.6136 112.576 51.6138 112.576 51.6138C112.576 51.6137 112.576 51.6137 112.576 51.6136C112.576 51.6133 112.576 51.6127 112.576 51.6119C112.576 51.6102 112.576 51.6074 112.575 51.6035C112.575 51.5957 112.574 51.5836 112.574 51.5672C112.572 51.5345 112.569 51.4847 112.566 51.4187C112.56 51.2867 112.551 51.0897 112.539 50.8342C112.516 50.3231 112.484 49.5779 112.448 48.6491C112.377 46.7903 112.291 44.2015 112.234 41.2844C112.118 35.3919 112.125 28.3688 112.564 23.2981L102.601 22.4355C102.113 28.0731 102.119 35.5499 102.236 41.4804C102.294 44.4747 102.382 47.1281 102.456 49.0336C102.492 49.987 102.525 50.7545 102.549 51.2855C102.561 51.5511 102.571 51.7576 102.578 51.8987C102.581 51.9693 102.584 52.0236 102.586 52.0607C102.587 52.0792 102.587 52.0935 102.588 52.1034C102.588 52.1084 102.588 52.1122 102.588 52.115C102.589 52.1163 102.589 52.1174 102.589 52.1182C102.589 52.1187 102.589 52.1191 102.589 52.1193C102.589 52.1196 102.589 52.1199 107.582 51.8668ZM112.564 23.2981C112.615 22.7038 113.106 21.4789 115.373 19.7654C117.549 18.1212 120.655 16.5784 124.232 15.2149C131.353 12.5006 139.234 10.9075 142.26 10.4419L140.74 0.558142C137.266 1.09254 128.652 2.82857 120.671 5.87063C116.697 7.38527 112.6 9.32736 109.345 11.7871C106.181 14.1775 103.013 17.6756 102.601 22.4355L112.564 23.2981ZM41.5 841.367V865.367H51.5V841.367H41.5ZM46.4198 870.366C96.8666 871.176 115.952 871.024 144.117 870.365L143.883 860.368C115.879 861.022 96.9289 861.176 46.5802 860.367L46.4198 870.366ZM94.2859 829.314C103.3 799.51 107.31 775.975 107.016 752.305C106.721 728.683 102.14 705.209 94.3349 675.593L84.6651 678.141C92.4013 707.494 96.7374 730.035 97.0163 752.429C97.2946 774.774 93.5345 797.255 84.7141 826.419L94.2859 829.314ZM94.4999 676.842C94.2519 626.37 96.5579 604.591 101.457 567.522L91.5431 566.212C86.5981 603.63 84.2493 625.873 84.5001 676.891L94.4999 676.842ZM101.324 565.554C90.3447 525.214 84.3981 493.747 82.8484 462.011C81.2983 430.269 84.1362 398.042 90.9354 356.168L81.0646 354.565C74.2078 396.795 71.2628 429.784 72.8603 462.499C74.4581 495.219 80.5896 527.45 91.6755 568.18L101.324 565.554ZM90.9729 354.847C90.4894 350.22 89.9454 347.013 89.0948 344.644C88.1003 341.875 86.7365 340.382 85.3148 339.123L78.6852 346.61C79.261 347.12 79.4171 347.283 79.6832 348.024C80.0931 349.165 80.5504 351.325 81.0271 355.886L90.9729 354.847ZM233.528 291.388L166.528 240.388L160.472 248.345L227.472 299.345L233.528 291.388ZM168.019 242.226L154.519 213.726L145.481 218.007L158.981 246.507L168.019 242.226ZM152.131 211.344C149.003 209.869 146.18 208.625 141.667 207.507C137.287 206.421 131.399 205.472 122.071 204.399L120.929 214.334C130.154 215.395 135.524 216.287 139.261 217.213C142.864 218.106 145.015 219.045 147.869 220.39L152.131 211.344ZM120.484 204.471C115.621 205.48 111.57 206.685 108.174 208.848C104.638 211.099 102.231 214.111 100.117 217.96L108.883 222.774C110.48 219.865 111.864 218.353 113.545 217.283C115.366 216.123 117.96 215.208 122.516 214.262L120.484 204.471ZM99.9813 222.507L104.481 232.007L113.519 227.726L109.019 218.226L99.9813 222.507ZM104.377 231.772C105.546 234.61 106.638 237.161 108.253 239.757C109.888 242.384 111.952 244.892 114.966 247.904L122.034 240.83C119.379 238.177 117.858 236.265 116.744 234.473C115.609 232.65 114.786 230.785 113.623 227.962L104.377 231.772ZM115.344 248.245L136.844 265.745L143.156 257.989L121.656 240.489L115.344 248.245ZM135.16 263.122L138.66 276.622L148.34 274.112L144.84 260.612L135.16 263.122ZM214 277.867V233.867H204V277.867H214ZM212.158 237.743L225.658 226.743L219.342 218.991L205.842 229.991L212.158 237.743ZM227.5 222.867V204.367H217.5V222.867H227.5ZM74.5 277.867V233.867H64.5V277.867H74.5ZM72.6584 229.991L59.1584 218.991L52.8416 226.743L66.3416 237.743L72.6584 229.991ZM61 222.867V204.367H51V222.867H61ZM55.0408 295.836L117.041 248.336L110.959 240.398L48.9592 287.898L55.0408 295.836ZM141.5 377.867V829.867H151.5V377.867H141.5ZM170.016 252.631L181.016 249.131L177.984 239.602L166.984 243.102L170.016 252.631ZM183.355 247.551L192.855 236.051L185.145 229.682L175.645 241.182L183.355 247.551ZM193.947 232.139L191.447 215.139L181.553 216.594L184.053 233.594L193.947 232.139ZM189.204 211.661L182.204 207.161L176.796 215.573L183.796 220.073L189.204 211.661ZM148.931 209.336L146.931 213.836L156.069 217.897L158.069 213.397L148.931 209.336ZM87.5518 341.798L85.0518 336.298L75.9482 340.436L78.4482 345.936L87.5518 341.798ZM85.0957 336.397L82.0957 329.397L72.9043 333.336L75.9043 340.336L85.0957 336.397ZM252.027 836.141C251.535 836.122 251.046 836.058 250.222 835.955C249.479 835.862 248.462 835.739 247.353 835.739V845.739C247.778 845.739 248.246 845.786 248.983 845.878C249.637 845.96 250.622 846.094 251.643 846.134L252.027 836.141ZM247.353 835.739C247.119 835.739 246.247 835.739 245.263 836.168C244.712 836.407 243.882 836.887 243.203 837.813C242.467 838.817 242.184 839.975 242.235 841.032C242.319 842.757 243.254 843.852 243.408 844.038C243.715 844.409 244.014 844.666 244.163 844.788C244.69 845.223 245.319 845.576 245.566 845.716C245.923 845.917 246.303 846.118 246.557 846.252C247.005 846.489 246.873 846.428 246.671 846.293L252.218 837.973C251.867 837.739 251.312 837.454 251.23 837.411C250.953 837.265 250.698 837.129 250.482 837.008C250.155 836.823 250.273 836.865 250.521 837.069C250.6 837.135 250.843 837.338 251.112 837.663C251.228 837.803 252.142 838.858 252.223 840.549C252.274 841.59 251.995 842.733 251.268 843.725C250.599 844.638 249.783 845.106 249.253 845.337C248.309 845.748 247.5 845.739 247.353 845.739V835.739ZM208.551 825.283C208.037 824.872 207.53 824.613 207.129 824.449C206.728 824.285 206.367 824.187 206.097 824.126C205.823 824.064 205.582 824.026 205.408 824.002C205.237 823.979 205.078 823.962 204.994 823.953C204.943 823.948 204.915 823.945 204.888 823.941C204.862 823.939 204.855 823.938 204.857 823.938C204.859 823.938 204.881 823.941 204.917 823.947C204.953 823.953 205.014 823.965 205.093 823.983C205.228 824.014 205.547 824.096 205.939 824.285C206.334 824.475 206.971 824.855 207.539 825.565L199.731 831.812C200.364 832.604 201.092 833.05 201.597 833.293C202.1 833.535 202.55 833.658 202.829 833.723C203.334 833.841 203.849 833.887 203.925 833.896C204.153 833.92 204.05 833.915 203.89 833.879C203.767 833.851 203.058 833.694 202.304 833.091L208.551 825.283ZM207.539 825.565C207.253 825.208 206.921 824.872 206.635 824.613C206.413 824.412 205.839 823.902 205.074 823.52L200.602 832.464C200.431 832.378 200.303 832.3 200.224 832.249C200.141 832.195 200.079 832.15 200.041 832.121C199.967 832.065 199.925 832.028 199.915 832.019C199.902 832.007 199.891 831.996 199.876 831.98C199.869 831.973 199.814 831.917 199.731 831.812L207.539 825.565ZM46.6163 836.367C48.3551 836.585 49.2972 837.722 49.6452 838.318C49.9833 838.898 50.0882 839.445 50.0931 839.908C50.0958 840.162 50.0703 840.545 49.9297 841.009C49.7979 841.443 49.4788 842.223 48.7082 842.936C47.8312 843.748 46.6365 844.212 45.386 844.159C44.2862 844.113 43.537 843.688 43.2226 843.479L48.7696 835.158C48.1482 834.744 47.1317 834.224 45.8042 834.168C44.3258 834.106 42.9427 834.647 41.916 835.597C40.2079 837.178 40.0853 839.227 40.0936 840.014C40.1047 841.064 40.3663 842.258 41.0069 843.356C41.6573 844.471 43.0477 845.999 45.376 846.29L46.6163 836.367ZM122.486 120.497L120.486 93.4974L110.514 94.2361L112.514 121.236L122.486 120.497ZM169.486 118.236L171.486 91.2361L161.514 90.4974L159.514 117.497L169.486 118.236ZM179.5 206.367H153.5V216.367H179.5V206.367Z" fill="black"/>
<line x1="2" y1="0.5" x2="289" y2="0.5" stroke="white"/>
<line x1="288.5" x2="288.5" y2="849.001" stroke="white"/>
<path d="M2.5 1L2.5 1023.5" stroke="white"/>
<rect x="185" y="1" width="103" height="148" fill="white"/>
<rect x="2" y="137" width="52" height="31" fill="white"/>
<rect x="45" y="147" width="53" height="3" fill="white"/>
<rect x="2" y="1" width="103" height="136" fill="white"/>
<rect x="234" y="147" width="54" height="21" fill="white"/>
<path d="M210 628H288V822H210V628Z" fill="white"/>
<path d="M222 438H288V536H222V438Z" fill="white"/>
<path d="M210 536H288V628H210V536Z" fill="white"/>
<path d="M252 304H269V343H252V304Z" fill="white"/>
<path d="M222 343H288V823H222V343Z" fill="white"/>
<path d="M272 820H289V850H272V820Z" fill="white"/>
<path d="M258 818H274V840H258V818Z" fill="white"/>
<path d="M267 166H288V844H267V166Z" fill="white"/>
<rect x="2" y="343" width="70" height="481" fill="white"/>
<rect x="2" y="309" width="29" height="36" fill="white"/>
<rect x="2" y="276" width="23" height="33" fill="white"/>
<rect x="33" y="167" width="8" height="5" fill="white"/>
<rect x="2" y="247" width="18" height="30" fill="white"/>
<rect x="2" y="213" width="13" height="35" fill="white"/>
<rect x="3" y="168" width="12" height="47" fill="white"/>
<rect x="15" y="165" width="18" height="10" fill="white"/>
<rect x="45" y="134" width="56" height="13" fill="white"/>
<rect x="67" y="787" width="26" height="13" fill="white"/>
<rect x="68" y="744" width="28" height="40" fill="white"/>
<rect x="67" y="778" width="28" height="9" fill="white"/>
<rect x="70" y="797" width="17" height="27" fill="white"/>
<rect x="85" y="798" width="6" height="11" fill="white"/>
<rect x="85" y="808" width="5" height="5" fill="white"/>
<rect x="85" y="813" width="4" height="4" fill="white"/>
<rect x="2" y="824" width="44" height="10" fill="white"/>
<rect x="85" y="816" width="3" height="4" fill="white"/>
<rect x="45" y="823" width="6" height="8" fill="white"/>
<rect x="51" y="823" width="6" height="5" fill="white"/>
<rect x="3" y="834" width="21" height="168" fill="white"/>
<rect x="24" y="833" width="8" height="11" fill="white"/>
<path d="M233.5 169L184.5 150L185 147L234 149L233.5 169Z" fill="white"/>
<path d="M184.5 150L185 147L184.5 0.5H178V67L177.5 70.5L177 74.5L176 79L174.5 82.5L172.5 87.5L170.5 91V95.5L170 98.5V103.5L169.5 106V111L169 112V127L169.5 129L170.5 132.5L172 135.5L174 138.5L175 140.5L176 142L180.5 146.5L184.5 150Z" fill="white"/>
<path d="M178 20H177.5L177 18.5L176.5 18V17.5L175 16V15.5L174.5 14.5L173.5 14L172 12H171L169.5 10.5L167.5 8L166 7L149.5 2L143 0.5L177.5 1L178 20Z" fill="white"/>
<path d="M105 16.5C111.081 9.52483 121.666 5.68335 135 1H105V16.5Z" fill="white"/>
<path d="M184.5 150L233.5 169L234 149L185 147M184.5 150L185 147M184.5 150L180.5 146.5L176 142L175 140.5L174 138.5L172 135.5L170.5 132.5L169.5 129L169 127V112L169.5 111V106L170 103.5V98.5L170.5 95.5V91L172.5 87.5L174.5 82.5L176 79L177 74.5L177.5 70.5L178 67V0.5H184.5L185 147M178 20H177.5L177 18.5L176.5 18V17.5L175 16V15.5L174.5 14.5L173.5 14L172 12H171L169.5 10.5L167.5 8L166 7L149.5 2L143 0.5L177.5 1L178 20ZM178 20L177.303 82M177.303 82L177 109L197.5 107.5L177.303 82ZM105 16.5C111.081 9.52483 121.666 5.68335 135 1H105V16.5Z" stroke="white"/>
<path d="M40.5 838L40 834.5V834H32L32.25 843L40.5 838Z" fill="white"/>
<path d="M24 848L32.25 843H23.5L24 848Z" fill="white"/>
<path d="M40 834.5L40.5 838L41.5873 837.13C43.2513 835.633 42.9847 834.803 42.1149 834.38C41.5446 834.102 40.7148 834 40 834V834.5Z" fill="white"/>
<path d="M41.5873 837.13L45.5 834L46 832L43 832.5L42 833.5L42.5 834L42.1149 834.38C42.9847 834.803 43.2513 835.633 41.5873 837.13Z" fill="white"/>
<path d="M57 826L69.5 824L57 823.5V826Z" fill="white"/>
<path d="M95.5 744L71.5 617.5L71 744.5L95.5 744Z" fill="white"/>
<path d="M71.5 617.5L85.5 576L71.5 503V617.5Z" fill="white"/>
<path d="M71.5 617.5L95.5 744L94.5 716.5L85.5 676L88 613.5L90.5 590L93 568L87.5 547.5L80 513L76 492.5L73.5 474V450V431.5V423L75.5 406V389V380.5L80.5 362.5V350L75.5 339.5L71.5 343V503L85.5 576L71.5 617.5Z" fill="white"/>
<path d="M40.5 838L40 834.5V834M40.5 838L32.25 843M40.5 838L41.5873 837.13M40.5 838C40.9294 837.688 41.2894 837.398 41.5873 837.13M40 834H32L32.25 843M40 834C40.7148 834 41.5446 834.102 42.1149 834.38M32.25 843L24 848L23.5 843H32.25ZM41.5873 837.13L45.5 834L46 832L43 832.5L42 833.5L42.5 834L42.1149 834.38M41.5873 837.13C43.2513 835.633 42.9847 834.803 42.1149 834.38M95.5 744L71.5 617.5M95.5 744L71 744.5M95.5 744L94.5 716.5L85.5 676L88 613.5L90.5 590L93 568L87.5 547.5L80 513L76 492.5L73.5 474V450V431.5V423L75.5 406V389V380.5L80.5 362.5V350L75.5 339.5L71.5 343V503M71.5 617.5L85.5 576L71.5 503M71.5 617.5L71 744.5M71.5 617.5V503M71.5 503L71 744.5M57 826L69.5 824L57 823.5V826Z" stroke="white"/>
<path d="M252.5 835.5L253 832V831.5H261L260.75 840.5L252.5 835.5Z" fill="white"/>
<path d="M269 845.5L260.75 840.5H269.5L269 845.5Z" fill="white"/>
<path d="M253 832L252.5 835.5L251.413 834.63C249.749 833.133 250.015 832.303 250.885 831.88C251.455 831.602 252.285 831.5 253 831.5V832Z" fill="white"/>
<path d="M251.413 834.63L247.5 831.5L247 829.5L250 830L251 831L250.5 831.5L250.885 831.88C250.015 832.303 249.749 833.133 251.413 834.63Z" fill="white"/>
<path d="M236 823.5L223.5 821.5L236 821V823.5Z" fill="white"/>
<path d="M196.578 742L220.078 615L220.578 742H196.578Z" fill="white"/>
<path d="M220.078 615L207.5 573.5L221.5 500.5L220.078 615Z" fill="white"/>
<path d="M220.078 615L196.578 742L210.12 676.5L208 673.5L207.5 642L205 611L202.5 587.5L200 565.5L205.5 545L213 510.5L217 490L219.5 471.5V420.5L217.5 403.5V378L212.5 360V347.5L213 343L222 342.5L221.5 500.5L207.5 573.5L220.078 615Z" fill="white"/>
<path d="M252.5 835.5L253 832V831.5M252.5 835.5L260.75 840.5M252.5 835.5L251.413 834.63M252.5 835.5C252.071 835.188 251.711 834.898 251.413 834.63M253 831.5H261L260.75 840.5M253 831.5C252.285 831.5 251.455 831.602 250.885 831.88M260.75 840.5L269 845.5L269.5 840.5H260.75ZM251.413 834.63L247.5 831.5L247 829.5L250 830L251 831L250.5 831.5L250.885 831.88M251.413 834.63C249.749 833.133 250.015 832.303 250.885 831.88M196.578 742L220.078 615M196.578 742H220.578M196.578 742L210.12 676.5L208 673.5L207.5 642L205 611L202.5 587.5L200 565.5L205.5 545L213 510.5L217 490L219.5 471.5V420.5L217.5 403.5V378L212.5 360V347.5L213 343L222 342.5L221.5 500.5M220.078 615L207.5 573.5L221.5 500.5M220.078 615L220.578 742M220.078 615L221.5 500.5M221.5 500.5L220.578 742M199 718L201.5 703.5L204.5 691.5C204.667 691 205.1 689.4 205.5 687C205.9 687 206.333 685 206.5 684M236 823.5L223.5 821.5L236 821V823.5Z" stroke="white"/>
<path d="M105 76.5L112 93.5L113 105.5V123L112 130L106.5 140L101 146L97 150L84.5 158.5L73.5 161.5L62 164.5L51 168L39.5 171.5L28.5 176.5L16 183.5V191.5H13V161.5L55 134L105 76.5Z" fill="white"/>
<path d="M16.5001 190L21.5001 181L16.5001 183.5V190Z" fill="white"/>
<path d="M16.0001 226L15.5001 211.5H15.0001V243.5V247C15.0001 247.051 15.0061 247.098 15.0177 247.143C15.2798 248.141 18.4041 247.479 20.0001 247L19.5001 243.5L16.0001 226Z" fill="white"/>
<path d="M20.0001 247C18.4041 247.479 15.2798 248.141 15.0177 247.143L30.0001 368.5L73.5001 427.5L76.0001 399.5L77.0001 390.5L79.0001 377.5L81.0001 362.5L82.5001 354L81.0001 348L76.0001 337.5L75.5001 338.5L74.5001 339L71.0001 342.5H67.0001L63.5001 343L59.5001 342.5L56.5001 341.5L53.0001 341L49.0001 339L44.0001 335.5L39.5001 330L35.5001 323.5L31.0001 308.5L28.5001 294.5C27.5001 288.833 24.4001 271.4 20.0001 247Z" fill="white"/>
<path d="M94.0001 714.5L95.5001 722L96.5001 730L97.5001 741.5V770.5L95.5001 779L95.4475 777.317L94.0001 714.5Z" fill="white"/>
<path d="M95.5001 779L95.4475 777.317L87.5001 781.5L88.0001 817V817.5L88.5001 818L89.0001 815L90.0001 810L91.0001 806.5L92.0001 802.5L92.5001 799.5L93.5001 796L94.5001 792L95.5001 786.752L96.5001 780.5L97.0001 776.5L96.3668 776.833L95.5001 779Z" fill="white"/>
<path d="M6.13463 998.891C6.53463 993.691 3.13468 1001.39 3.63468 1010.89L5.13468 1006.89C4.63472 1006.39 6.13463 1005.39 8.13463 1001.89C10.3534 998.008 11.3013 995.891 11.6346 995.391L13.6346 993.891L16.6346 991.391L18.6346 989.891L22.1346 988.391L23.6346 987.891H4.13463V1011.7L6.13463 998.891Z" fill="white"/>
<path d="M275 995L272.5 993L273 992.5H289V1019.5L287.5 1009L286.5 1007.5L285 1004.5L283.5 1002L282 1000L280.5 998.5C279.3 997.3 277.667 996 277 995.5L275 994.5V995Z" fill="white"/>
<path d="M273 842.5L272 849L269 847L266.5 845L264.5 844L258.5 840.5L256 839.5L254 838L250 834.5L244.5 830L238.5 827.5L233.5 825.5L227.5 824.5L218 823.5H207L205 817L200 793.5L197.5 781L196.5 769.5V742L197 732L199 718.5L211 742L246 813.5L276.5 830L273 842.5Z" fill="white"/>
<path d="M212 360C212 361.5 213.5 368.5 213.5 368.5L214 372.5L215 378L215.5 384C215.833 384 216.5 384.6 216.5 387V389.5V392.5L217.5 396V377.5C217.5 377.5 212 358.5 212 360Z" fill="white"/>
<path d="M16.5001 191.5L15.0001 203V191H16.0001L15.5001 194.5V211.5M15.5001 211.5L16.0001 226L19.5001 243.5L20.0001 247M15.5001 211.5H15.0001V243.5M20.0001 247C24.4001 271.4 27.5001 288.833 28.5001 294.5L31.0001 308.5L35.5001 323.5L39.5001 330L44.0001 335.5L49.0001 339L53.0001 341L56.5001 341.5L59.5001 342.5L63.5001 343L67.0001 342.5H71.0001L74.5001 339L75.5001 338.5L76.0001 337.5L81.0001 348L82.5001 354L81.0001 362.5L79.0001 377.5L77.0001 390.5L76.0001 399.5L73.5001 427.5L30.0001 368.5L15.0177 247.143M20.0001 247C18.4041 247.479 15.2798 248.141 15.0177 247.143M15.0001 247C15.0001 246.6 15.0001 244.5 15.0001 243.5M15.0001 247V243.5M15.0001 247L15.0177 247.143M15.0001 247C15.0001 247.051 15.0061 247.098 15.0177 247.143M97.5001 770.5L95.5001 779M97.5001 770.5V774L96.3668 776.833M97.5001 770.5V741.5L96.5001 730L95.5001 722L94.0001 714.5L95.4475 777.317M95.5001 779L95.4475 777.317M95.5001 779L96.3668 776.833M88.5001 818L89.0001 815L90.0001 810L91.0001 806.5L92.0001 802.5L92.5001 799.5L93.5001 796L94.5001 792L95.5001 786.752L96.5001 780.5L97.0001 776.5L96.3668 776.833M88.5001 818L87.5001 819.5L87.0001 821.5V823M88.5001 818L87.0001 823M88.5001 818L88.0001 817.5V817L87.5001 781.5M87.0001 823C86.6001 823.8 86.5001 824 86.5001 824M87.5001 781.5L95.4475 777.317M87.5001 781.5L70.5001 796L44.5001 835L46.0001 833.5L49.5001 831.5L51.0001 830L55.0001 828L58.0001 827L62.0001 825.5L67.0001 825L68.5001 824.5L69.5001 824H85.5001M95.4475 777.317L96.3668 776.833M23.6346 987.891L22.1346 988.391L18.6346 989.891L16.6346 991.391L13.6346 993.891L11.6346 995.391C11.3013 995.891 10.3534 998.008 8.13463 1001.89C6.13463 1005.39 4.63472 1006.39 5.13468 1006.89L3.63468 1010.89C3.13468 1001.39 6.53463 993.691 6.13463 998.891L4.13463 1011.7V987.891M23.6346 987.891L23.5 1001L4.13463 987.891M23.6346 987.891H4.13463M282 1000L283.5 1002L285 1004.5L286.5 1007.5L287.5 1009L289 1019.5V992.5H273L272.5 993L275 995V994.5L277 995.5C277.667 996 279.3 997.3 280.5 998.5M282 1000C282 1000 281.7 999.7 280.5 998.5M282 1000L280.5 998.5M212 360C212 361.5 213.5 368.5 213.5 368.5L214 372.5L215 378L215.5 384C215.833 384 216.5 384.6 216.5 387M212 360C212 358.5 217.5 377.5 217.5 377.5V396L216.5 392.5V389.5M212 360L211 355L212.5 349L212 360ZM216.5 387C216.5 389.4 216.5 389.667 216.5 389.5M216.5 387V389.5M212 350H216L221.5 344.5L213 342.5M213 342.5H212L213.5 344L213 342.5ZM105 76.5L112 93.5L113 105.5V123L112 130L106.5 140L101 146L97 150L84.5 158.5L73.5 161.5L62 164.5L51 168L39.5 171.5L28.5 176.5L16 183.5V191.5H13V161.5L55 134L105 76.5ZM16.5001 190L21.5001 181L16.5001 183.5V190ZM273 842.5L272 849L269 847L266.5 845L264.5 844L258.5 840.5L256 839.5L254 838L250 834.5L244.5 830L238.5 827.5L233.5 825.5L227.5 824.5L218 823.5H207L205 817L200 793.5L197.5 781L196.5 769.5V742L197 732L199 718.5L211 742L246 813.5L276.5 830L273 842.5Z" stroke="white"/>
<path d="M266 228.5L252.569 303.615L254 306H266.5L267.5 302.5L268 273L269 248L267.5 207.5L266 228.5Z" fill="white"/>
<path d="M249.5 172L260 178L266.5 180.5L264 149.5L240.5 158C235.833 160.333 227.9 165.7 233.5 168.5C239.1 171.3 242.167 172 243 172H249.5Z" fill="white"/>
<path d="M248.5 318L252.5 304L252.569 303.615M267.5 207.5L266 228.5L252.569 303.615M267.5 207.5L266 180C268 180.833 269.6 181.6 260 178M267.5 207.5L269 248L268 273L267.5 302.5L266.5 306H254L252.569 303.615M260 178L249.5 172H243C242.167 172 239.1 171.3 233.5 168.5C227.9 165.7 235.833 160.333 240.5 158L264 149.5L266.5 180.5L260 178ZM252.5 303.5L252.569 303.615" stroke="white"/>
<path d="M222.5 342.5L234 339C234.5 338.833 236 338 238 336C240 334 241.833 331.833 242.5 331L244 328.5L245 326L247 322.5C247.167 322.5 247.6 322 248 320C248 320.5 247.7 321.2 248.5 318" stroke="white"/>
<path d="M58.2423 826.339C57.6018 826.474 56.974 826.692 56.3558 826.907C55.6765 827.143 54.9663 827.414 54.3205 827.732C53.9486 827.915 53.5748 828.101 53.2099 828.297C53.182 828.312 52.9586 828.369 53.0388 828.337C53.3204 828.224 53.5885 827.993 53.8371 827.831C54.6214 827.321 55.4192 826.828 56.2417 826.381C56.8805 826.034 57.5412 825.761 58.2324 825.541C58.325 825.511 58.4715 825.447 58.5696 825.447C58.7042 825.447 58.3142 825.532 58.1878 825.578C57.6324 825.781 57.0706 825.968 56.5194 826.183C55.6016 826.54 54.6721 826.948 53.8098 827.425C53.2554 827.731 52.6632 828.055 52.1488 828.426C51.8034 828.676 51.3786 828.9 51.1027 829.23C51.047 829.296 50.9021 829.392 50.8696 829.463C50.8275 829.554 51.0462 829.366 51.1324 829.314C51.6099 829.026 52.0846 828.733 52.5653 828.451C53.3007 828.02 54.0672 827.661 54.8312 827.286C54.8744 827.265 55.0081 827.21 54.965 827.231C54.7888 827.32 54.6024 827.395 54.4246 827.479C52.9454 828.184 51.5652 829.027 50.173 829.882C50.1246 829.911 49.6662 830.228 49.9028 830.001C50.6625 829.27 51.5302 828.636 52.3744 828.007C52.6128 827.83 52.8362 827.622 53.0834 827.457C53.1295 827.426 53.079 827.415 53.0438 827.42C52.7876 827.456 52.5236 827.589 52.2901 827.69C51.8268 827.891 51.376 828.121 50.9465 828.387C50.699 828.54 50.4681 828.743 50.2053 828.87C49.8896 829.022 50.3904 828.645 50.4135 828.627C51.1365 828.066 51.8965 827.546 52.6744 827.063C52.7116 827.04 52.8291 826.986 52.7859 826.993C52.6268 827.02 52.3347 827.286 52.2257 827.358C51.2036 828.034 50.231 828.748 49.3351 829.587C49.0447 829.858 48.8319 830.226 48.5418 830.484C48.2562 830.738 49.2802 830.272 49.6227 830.102C50.544 829.647 51.3799 829.035 52.2951 828.578C52.3926 828.529 52.7547 828.291 52.4414 828.533C51.196 829.496 49.9239 830.385 48.6112 831.252C47.9758 831.673 47.3445 832.091 46.6305 832.368C46.5055 832.416 46.2882 832.534 46.1495 832.542C45.9543 832.552 46.5888 832.163 46.6057 832.15C48.0838 830.989 49.5372 829.798 50.9688 828.58C51.4195 828.197 51.8668 827.742 52.3967 827.464C52.4413 827.441 52.3035 827.503 52.2579 827.524C51.6685 827.801 51.1295 828.163 50.5969 828.535C49.2647 829.467 47.9569 830.444 46.7247 831.505C46.5197 831.682 46.2799 831.846 46.1396 832.076C46.1273 832.096 46.1082 832.095 46.0875 832.095C45.9604 832.095 46.2919 831.944 46.3949 831.87C47.9114 830.775 49.5479 829.831 51.2093 828.974C51.6691 828.737 52.1249 828.494 52.5951 828.28C52.8006 828.187 52.2049 828.508 52.015 828.63C50.6777 829.489 49.377 830.347 48.1551 831.364C47.9264 831.554 47.5627 831.977 47.2428 832.048C47.0887 832.082 47.8211 831.39 47.8328 831.379C48.759 830.531 49.786 829.811 50.7506 829.009C50.8647 828.914 50.9806 828.821 51.0928 828.724C51.0964 828.721 50.636 828.979 50.5969 829.001C49.5231 829.62 48.4603 830.294 47.4833 831.059C47.2395 831.25 46.9523 831.617 46.6503 831.728C46.4523 831.802 46.6122 831.305 46.6255 831.257C46.72 830.919 46.8604 830.597 46.9428 830.256C47.002 830.011 46.5977 830.245 46.5412 830.276C46.0462 830.543 45.6391 830.936 45.3661 831.431C45.1632 831.799 45.4121 831.563 45.6041 831.381C46.276 830.746 46.9331 830.095 47.6022 829.458C47.8768 829.196 47.329 829.833 47.3147 829.849C46.7384 830.524 45.2198 832.701 45.6438 831.922C45.889 831.471 46.3378 831.025 46.7197 830.687C46.7931 830.622 46.9991 830.432 46.8288 830.667C46.5108 831.106 46.1884 831.621 45.8124 832.011C45.7487 832.077 45.6241 832.071 45.6587 832.14" stroke="white" stroke-width="0.5" stroke-linecap="round"/>
<path d="M265.5 188.5L263 183L260.5 180.5L257 178.5L254 177L250 175L243.5 172.5L237.5 171L216 164L198.5 159L196.5 157.5L185.5 151L183.5 149L211.5 136L255 143.5L273 154L275 192L267.5 342.5L233 339L237 336L240.5 332.5L244 327.5L246 323L248 318L250 313.5L252 304L253.5 294.5L258.5 268L261 252L264.5 230.5L267 209V199.5L266 194L265.5 188.5Z" fill="white" stroke="white"/>
<path d="M215.5 383.5L217.5 402.5" stroke="white"/>
<path d="M223 342.5L253.5 343.5L255 317.5L252 307H251.5L249 317.5L248 323.5L245.5 328L240.5 333.5L233.5 340L223 342.5Z" fill="white" stroke="white"/>
<path d="M28.5 846L23 850" stroke="black" stroke-width="0.5"/>
<path d="M107 15L104.5 19" stroke="white"/>
<path d="M211.5 355.5L212.5 344L254.5 364.5" stroke="white"/>
<path d="M178 21.5L176 17.5L174.5 15L173 14L169 11L164.5 8L161 6.5L157.5 5L153 3.5L149.5 2.5L144.5 1.5L141.5 1H139H136L135.5 1.5L133 2L130.5 2.5L133 0.5H169L179.5 11L178 21.5Z" fill="white" stroke="white"/>
<path d="M111 12L107 15L106 14.5L110.5 7L123 5L119.5 7L116.5 8.5L114 10L111 12Z" stroke="white"/>
<path d="M112.005 124.392V125.385V126.378V127.371L111.511 128.86V129.357L111.016 130.846L110.521 131.839L110.027 133.329L109.037 134.818L108.543 136.308L108.048 137.797L107.059 138.79L106.564 139.783L106.069 140.776L105.08 141.769L104.09 142.762L103.101 143.755L102.112 145.245L100.628 146.238L99.6383 147.231L97.6596 149.217L94.1968 151.699L91.7234 153.189L90.2394 154.182L87.766 155.671L85.7872 157.161L83.8085 158.154L82.3245 158.65L80.8404 159.147C81.1702 159.147 81.3351 159.246 79.3564 159.643C77.3777 160.041 75.5638 160.471 74.9043 160.636L71.4415 161.629L67.9787 162.622L65.0106 163.615L61.5479 164.608L59.0745 165.601L55.117 166.594L53.1383 167.091L51.6543 167.587L48.6862 168.58L45.7181 169.573L43.7394 170.07L41.7606 171.063H40.7713L37.3085 172.552L35.3298 173.049L33.8457 174.042L31.867 174.538L29.8883 175.531L26.4255 177.021L19.5 180L85.7872 109L108.048 113.965L112.005 114.462L112.5 116.944V118.434V119.427V120.916V121.909V122.406V123.399L112.005 123.895V124.392Z" fill="white"/>
<path d="M111.511 122.902L112.005 121.909V123.895M112.5 123.399V122.406V121.909V120.916V119.427V118.434V116.944L112.005 114.462L108.048 113.965L85.7872 109L19.5 180L26.4255 177.021L29.8883 175.531L31.867 174.538L33.8457 174.042L35.3298 173.049L37.3085 172.552L40.7713 171.063H41.7606L43.7394 170.07L45.7181 169.573L48.6862 168.58L51.6543 167.587L53.1383 167.091L55.117 166.594L59.0745 165.601L61.5479 164.608L65.0106 163.615L67.9787 162.622L71.4415 161.629L74.9043 160.636C75.5638 160.471 77.3777 160.041 79.3564 159.643C81.3351 159.246 81.1702 159.147 80.8404 159.147L82.3245 158.65L83.8085 158.154L85.7872 157.161L87.766 155.671L90.2394 154.182L91.7234 153.189L94.1968 151.699L97.6596 149.217L99.6383 147.231L100.628 146.238L102.112 145.245L103.101 143.755L104.09 142.762L105.08 141.769L106.069 140.776L106.564 139.783L107.059 138.79L108.048 137.797L108.543 136.308L109.037 134.818L110.027 133.329L110.521 131.839L111.016 130.846L111.511 129.357V128.86L112.005 127.371V126.378V125.385V124.392V123.895M112.5 123.399L112.005 123.895M112.5 123.399V124.392" stroke="white"/>
<rect x="221" y="497" width="4" height="61" fill="white"/>
<path d="M205.5 687L208 677" stroke="white"/>
<path d="M208 673V677.5" stroke="white"/>
<path d="M199.973 719.271C200.267 719.259 200.38 718.742 200.414 718.526C200.423 718.466 200.419 718.403 200.419 718.343C200.419 718.186 200.488 718.016 200.518 717.863C200.547 717.713 200.584 717.565 200.605 717.414C200.614 717.352 200.613 717.263 200.644 717.208C200.695 717.118 200.726 717.028 200.766 716.93C200.81 716.82 200.853 716.691 200.887 716.577C200.913 716.49 200.973 716.408 201.005 716.32C201.075 716.133 201.062 715.94 201.104 715.752C201.152 715.544 201.157 715.304 201.24 715.108C201.276 715.024 201.239 714.927 201.277 714.847C201.327 714.739 201.331 714.598 201.352 714.48C201.393 714.257 201.531 714.056 201.568 713.828" stroke="white" stroke-width="3" stroke-linecap="round"/>
<path d="M203.469 701.558C203.483 701.061 203.734 700.581 203.799 700.093C203.826 699.889 203.933 699.685 203.98 699.488C204.11 698.943 204.241 698.406 204.332 697.859C204.444 697.187 204.674 696.542 204.811 695.873C204.854 695.666 204.923 695.488 204.923 695.272C204.923 695.142 204.999 694.973 205.041 694.848" stroke="white" stroke-width="3" stroke-linecap="round"/>
<path d="M201.545 712.256C201.614 712.023 201.827 711.763 201.827 711.517C201.827 711.274 201.991 711.072 201.991 710.825" stroke="white" stroke-width="3" stroke-linecap="round"/>
<path d="M205.322 693.652C205.322 693.332 205.48 693.046 205.486 692.734C205.488 692.672 205.479 692.616 205.505 692.562C205.547 692.472 205.522 692.367 205.552 692.275C205.617 692.072 205.603 691.82 205.632 691.608C205.664 691.38 205.692 691.083 205.786 690.873C205.834 690.767 205.845 690.662 205.867 690.55C205.896 690.403 205.956 690.234 205.956 690.084C205.956 689.961 206.003 689.852 206.026 689.735C206.051 689.611 206.048 689.461 206.11 689.347C206.195 689.188 206.205 688.989 206.271 688.819C206.327 688.676 206.331 688.51 206.366 688.36C206.442 688.044 206.54 687.73 206.613 687.411" stroke="white" stroke-width="3" stroke-linecap="round"/>
<path d="M202.272 709.558C202.28 709.309 202.294 709.065 202.378 708.831C202.394 708.786 202.393 708.743 202.418 708.701C202.447 708.651 202.442 708.611 202.465 708.56C202.529 708.417 202.537 708.24 202.59 708.089C202.66 707.892 202.735 707.665 202.766 707.458C202.796 707.266 202.854 707.038 202.929 706.86C202.993 706.711 203.047 706.543 203.047 706.381C203.047 706.136 203.163 705.905 203.187 705.664C203.197 705.562 203.232 705.421 203.269 705.323C203.311 705.216 203.29 705.108 203.323 705.002C203.382 704.811 203.294 704.591 203.363 704.397C203.428 704.216 203.469 704.019 203.487 703.823C203.518 703.496 203.61 703.164 203.61 702.837C203.61 702.442 203.61 702.047 203.61 701.652" stroke="white" stroke-width="3" stroke-linecap="round"/>
<path d="M198.944 717.188C198.855 718.226 198.469 719.217 198.392 720.263C198.356 720.754 198.339 721.238 198.339 721.729C198.339 722.134 198.276 722.506 198.238 722.904C198.198 723.326 198.182 723.78 198.109 724.196C198.048 724.546 197.926 724.874 197.873 725.228C197.769 725.933 197.648 726.641 197.557 727.348C197.432 728.319 197.341 729.497 197.582 730.46" stroke="white" stroke-linecap="round"/>
<path d="M198.238 722.032C198.054 722.991 198.045 723.977 197.859 724.937C197.707 725.722 197.689 726.533 197.632 727.331" stroke="white" stroke-linecap="round"/>
<path d="M197.38 728.34C197.236 729.863 197.027 731.35 197.027 732.882" stroke="white" stroke-linecap="round"/>
<path d="M197.733 725.211C197.733 726.356 197.556 727.49 197.492 728.632C197.467 729.091 197.513 729.552 197.431 730.005" stroke="white" stroke-linecap="round"/>
<path d="M197.834 724.353C197.8 725.188 197.578 726.002 197.537 726.835C197.518 727.224 197.599 727.664 197.503 728.046C197.339 728.703 197.392 729.415 197.178 730.056" stroke="white" stroke-linecap="round"/>
<path d="M197.481 727.028C197.456 727.566 197.327 728.101 197.268 728.637C197.19 729.346 197.146 730.049 197.102 730.76C197.043 731.731 196.976 732.716 196.976 733.689" stroke="white" stroke-linecap="round"/>
<path d="M197.178 729.602C197.025 730.947 196.808 732.283 196.609 733.622C196.398 735.044 196.338 736.449 196.295 737.883C196.249 739.395 196.27 740.908 196.27 742.42" stroke="white" stroke-linecap="round"/>
<path d="M196.825 735.456C196.486 738.613 195.937 741.7 196.396 744.862C196.48 745.444 196.602 746.038 196.62 746.628C196.626 746.813 196.659 747.077 196.522 747.214" stroke="white" stroke-linecap="round"/>
<path d="M196.27 739.139C196.238 741.5 196.34 743.795 196.808 746.123C197.047 747.313 197.348 748.488 197.543 749.686C197.72 750.78 197.776 751.863 197.834 752.967" stroke="white" stroke-linecap="round"/>
<path d="M196.118 738.635C196.024 740.884 195.848 743.107 196.057 745.346C196.144 746.288 196.223 747.233 196.295 748.175C196.376 749.237 196.522 750.286 196.522 751.352" stroke="white" stroke-linecap="round"/>
<path d="M195.816 744.337C195.749 747.586 195.765 750.829 195.765 754.077" stroke="white" stroke-linecap="round"/>
<path d="M195.917 751.352C195.917 753.52 195.92 755.696 196.029 757.862C196.072 758.713 196.209 759.55 196.292 760.396C196.381 761.299 196.472 762.202 196.472 763.11" stroke="white" stroke-linecap="round"/>
<path d="M195.563 748.273C195.563 750.042 195.556 751.808 195.639 753.575C195.737 755.647 195.895 757.722 195.917 759.796C195.936 761.643 196.006 763.54 196.317 765.364C196.404 765.873 196.488 766.366 196.511 766.883C196.525 767.196 196.512 767.498 196.573 767.803" stroke="white" stroke-linecap="round"/>
<path d="M195.563 753.471C195.563 755.644 195.771 757.83 196.023 759.987C196.204 761.532 196.433 763.076 196.755 764.599C197.02 765.854 197.361 767.093 197.607 768.353C197.862 769.658 198.214 770.933 198.487 772.233C198.568 772.613 198.642 773.014 198.642 773.405" stroke="white" stroke-linecap="round"/>
<path d="M195.563 756.297C195.563 759.472 195.863 762.654 196.573 765.751C196.809 766.782 197.058 767.815 197.268 768.852C197.341 769.212 197.431 769.604 197.431 769.973" stroke="white" stroke-linecap="round"/>
<path d="M195.513 759.325C195.533 761.88 196.002 764.429 196.382 766.951C196.485 767.634 196.724 768.372 196.724 769.065" stroke="white" stroke-linecap="round"/>
<path d="M195.866 763.665C195.866 765.507 195.937 767.351 196.146 769.182C196.217 769.796 196.293 770.418 196.399 771.027C196.449 771.316 196.522 771.597 196.522 771.891" stroke="white" stroke-linecap="round"/>
<path d="M196.068 769.166C196.157 770.699 196.145 772.292 196.404 773.814C196.528 774.542 196.783 775.248 196.951 775.967C197.072 776.484 197.128 776.966 197.128 777.492" stroke="white" stroke-linecap="round"/>
<path d="M196.472 772.9C196.494 773.992 196.683 775.082 196.847 776.16C196.906 776.542 196.912 776.927 196.976 777.307C197.058 777.784 197.128 778.22 197.128 778.703" stroke="white" stroke-linecap="round"/>
<path d="M196.674 776.079C196.966 777.469 197.41 778.821 197.683 780.217C197.827 780.953 197.919 781.702 198.087 782.438C198.192 782.902 198.328 783.379 198.339 783.856C198.344 784.102 198.482 784.31 198.49 784.546C198.492 784.587 198.497 784.681 198.457 784.577C198.271 784.103 198.126 783.605 197.969 783.122C197.587 781.944 197.408 780.731 197.229 779.511" stroke="white" stroke-linecap="round"/>
<path d="M196.724 773.152C197.018 775.357 197.425 777.56 197.879 779.735C197.927 779.964 197.945 780.198 197.974 780.43C198.002 780.648 198.098 780.829 198.137 781.041C198.198 781.373 198.238 781.698 198.238 782.034" stroke="white" stroke-linecap="round"/>
<path d="M200.004 796.063C199.914 795.042 199.5 794.018 199.345 793.01C199.31 792.778 199.173 792.573 199.149 792.331C199.125 792.087 199.145 791.865 199.085 791.622C198.977 791.193 198.944 790.828 198.944 790.386C198.944 790.14 198.748 789.963 198.692 789.727C198.608 789.369 198.541 789.082 198.541 788.706C198.541 788.429 198.583 788.114 198.501 787.849C198.364 787.401 198.238 786.885 198.238 786.402C198.238 785.943 197.996 785.478 197.938 785.014C197.91 784.795 197.984 784.546 197.823 784.367C197.74 784.275 197.733 784.097 197.733 783.974C197.733 783.804 197.632 783.665 197.632 783.486C197.632 783.219 197.531 782.987 197.531 782.715C197.531 782.462 197.481 782.196 197.481 781.958C197.481 781.706 197.38 781.482 197.38 781.227C197.38 780.985 197.279 780.251 197.481 780.116" stroke="white" stroke-linecap="round"/>
<path d="M200.307 795.912C200.391 796.585 200.668 797.288 200.89 797.93C200.958 798.126 200.943 798.349 201.036 798.536C201.201 798.865 201.353 799.253 201.468 799.598C201.86 800.774 200.333 797.373 200.015 796.175C199.89 795.704 199.853 795.236 199.853 794.751C199.853 794.714 199.868 794.399 199.881 794.417C200.026 794.624 200.005 795.058 200.055 795.3C200.112 795.579 200.178 795.855 200.206 796.139C200.263 796.723 200.454 797.295 200.599 797.857C200.649 798.053 200.75 798.229 200.761 798.435C200.774 798.667 200.94 798.853 200.96 799.068C200.995 799.439 201.072 799.792 201.154 800.151C201.217 800.429 201.241 800.677 201.327 800.947C201.421 801.238 201.484 801.557 201.594 801.841C201.637 801.954 201.595 802.051 201.669 802.144C201.738 802.229 201.77 802.411 201.77 802.522C201.77 802.696 201.732 802.921 201.782 803.089C201.818 803.212 201.953 803.319 201.969 803.436C202.005 803.682 202.108 803.913 202.174 804.143C202.256 804.431 202.318 804.776 202.438 805.046C202.501 805.188 202.578 805.256 202.578 805.421C202.578 805.6 202.635 805.792 202.707 805.957C202.8 806.17 202.776 806.397 202.783 806.627C202.794 807.072 202.848 807.504 202.928 807.942C203.001 808.336 202.982 808.734 202.982 809.133" stroke="white" stroke-linecap="round"/>
<path d="M202.578 807.872C202.578 807.354 202.578 806.845 202.578 806.346C202.578 805.827 202.174 805.429 202.174 804.919C202.174 804.655 201.987 804.512 201.972 804.238C201.957 803.948 201.72 803.751 201.72 803.459C201.72 803.274 201.66 802.955 201.58 802.775C201.479 802.548 201.367 802.378 201.367 802.119C201.367 801.877 201.165 801.67 201.165 801.437C201.165 801.295 201.044 801.207 201.016 801.084C200.986 800.949 200.963 800.794 200.963 800.655C200.963 800.167 200.791 799.705 200.713 799.239C200.69 799.101 200.738 798.95 200.708 798.813C200.68 798.689 200.61 798.565 200.61 798.435C200.61 798.192 200.424 798.026 200.36 797.801C200.29 797.557 200.36 797.34 200.195 797.134C200.051 796.954 200.156 796.286 200.156 796.063" stroke="white" stroke-linecap="round"/>
<path d="M5.45044 1008.01L5.45567 1008.05L5.49502 1008.05C6.23052 1008.12 7.27119 1008.25 8.16911 1008.4C8.61819 1008.48 9.03052 1008.56 9.35078 1008.64C9.51097 1008.69 9.64704 1008.73 9.75269 1008.77C9.8602 1008.82 9.92981 1008.86 9.96343 1008.89C9.98056 1008.91 9.98385 1008.92 9.98395 1008.93C9.98403 1008.94 9.98179 1008.95 9.96464 1008.96L9.9623 1008.97L9.95997 1008.97L9.95764 1008.97L9.95532 1008.97L9.95301 1008.98L9.95071 1008.98L9.94841 1008.98L9.94611 1008.98L9.94383 1008.99L9.94155 1008.99L9.93928 1008.99L9.93701 1008.99L9.93475 1008.99L9.9325 1009L9.93026 1009L9.92802 1009L9.92579 1009L9.92356 1009.01L9.92134 1009.01L9.91913 1009.01L9.91693 1009.01L9.91473 1009.01L9.91254 1009.02L9.91035 1009.02L9.90817 1009.02L9.906 1009.02L9.90384 1009.03L9.90168 1009.03L9.89953 1009.03L9.89738 1009.03L9.89524 1009.03L9.89311 1009.04L9.89099 1009.04L9.88887 1009.04L9.88675 1009.04L9.88465 1009.04L9.88255 1009.05L9.88046 1009.05L9.87837 1009.05L9.87629 1009.05L9.87422 1009.06L9.87215 1009.06L9.87009 1009.06L9.86804 1009.06L9.86599 1009.06L9.86395 1009.07L9.86192 1009.07L9.85989 1009.07L9.85787 1009.07L9.85585 1009.07L9.85385 1009.08L9.85184 1009.08L9.84985 1009.08L9.84786 1009.08L9.84588 1009.08L9.8439 1009.09L9.84193 1009.09L9.83997 1009.09L9.83801 1009.09L9.83606 1009.09L9.83411 1009.1L9.83217 1009.1L9.83024 1009.1L9.82832 1009.1L9.8264 1009.1L9.82448 1009.1L9.82258 1009.11L9.82068 1009.11L9.81878 1009.11L9.81689 1009.11L9.81501 1009.11L9.81314 1009.12L9.81127 1009.12L9.8094 1009.12L9.80755 1009.12L9.8057 1009.12L9.80385 1009.13L9.80201 1009.13L9.80018 1009.13L9.79835 1009.13L9.79653 1009.13L9.79472 1009.13L9.79291 1009.14L9.79111 1009.14L9.78932 1009.14L9.78753 1009.14L9.78574 1009.14L9.78397 1009.15L9.7822 1009.15L9.78043 1009.15L9.77867 1009.15L9.77692 1009.15L9.77517 1009.15L9.77343 1009.16L9.7717 1009.16L9.76997 1009.16L9.76824 1009.16L9.76653 1009.16L9.76482 1009.16L9.76311 1009.17L9.76141 1009.17L9.75972 1009.17L9.75803 1009.17L9.75635 1009.17L9.75468 1009.17L9.75301 1009.18L9.75135 1009.18L9.74969 1009.18L9.74804 1009.18L9.74639 1009.18L9.74475 1009.18L9.74312 1009.19L9.74149 1009.19L9.73987 1009.19L9.73825 1009.19L9.73664 1009.19L9.73504 1009.19L9.73344 1009.2L9.73185 1009.2L9.73026 1009.2L9.72868 1009.2L9.7271 1009.2L9.72553 1009.2L9.72397 1009.21L9.72241 1009.21L9.72086 1009.21L9.71931 1009.21L9.71777 1009.21L9.71623 1009.21L9.7147 1009.21L9.71318 1009.22L9.71166 1009.22L9.71015 1009.22L9.70864 1009.22L9.70714 1009.22L9.70565 1009.22L9.70416 1009.23L9.70267 1009.23L9.70119 1009.23L9.69972 1009.23L9.69825 1009.23L9.69679 1009.23L9.69534 1009.23L9.69389 1009.24L9.69244 1009.24L9.691 1009.24L9.68957 1009.24L9.68814 1009.24L9.68672 1009.24L9.6853 1009.24L9.68389 1009.25L9.68248 1009.25L9.68108 1009.25L9.67969 1009.25L9.6783 1009.25L9.67691 1009.25L9.67553 1009.25L9.67416 1009.26L9.67279 1009.26L9.67143 1009.26L9.67007 1009.26L9.66872 1009.26L9.66738 1009.26L9.66604 1009.26L9.6647 1009.26L9.66337 1009.27L9.66205 1009.27L9.66073 1009.27L9.65941 1009.27L9.65811 1009.27L9.6568 1009.27L9.65551 1009.27L9.65421 1009.28L9.65293 1009.28L9.65164 1009.28L9.65037 1009.28L9.6491 1009.28L9.64783 1009.28L9.64657 1009.28L9.64532 1009.28L9.64407 1009.29L9.64282 1009.29L9.64158 1009.29L9.64035 1009.29L9.63912 1009.29L9.63789 1009.29L9.63668 1009.29L9.63546 1009.29L9.63425 1009.3L9.63305 1009.3L9.63185 1009.3L9.63066 1009.3L9.62947 1009.3L9.62829 1009.3L9.62711 1009.3L9.62594 1009.3L9.62477 1009.3L9.62361 1009.31L9.62245 1009.31L9.6213 1009.31L9.62016 1009.31L9.61901 1009.31L9.61788 1009.31L9.61675 1009.31L9.61562 1009.31L9.6145 1009.31L9.61338 1009.32L9.61227 1009.32L9.61116 1009.32L9.61006 1009.32L9.60897 1009.32L9.60787 1009.32L9.60679 1009.32L9.60571 1009.32L9.60463 1009.32L9.60356 1009.33L9.60249 1009.33L9.60143 1009.33L9.60037 1009.33L9.59932 1009.33L9.59827 1009.33L9.59723 1009.33L9.59619 1009.33L9.59516 1009.33L9.59413 1009.34L9.59311 1009.34L9.59209 1009.34L9.59108 1009.34L9.59007 1009.34L9.58907 1009.34L9.58807 1009.34L9.58708 1009.34L9.58609 1009.34L9.5851 1009.34L9.58413 1009.35L9.58315 1009.35L9.58218 1009.35L9.58122 1009.35L9.58026 1009.35L9.5793 1009.35L9.57835 1009.35L9.5774 1009.35L9.57646 1009.35L9.57552 1009.35L9.57459 1009.35L9.57366 1009.36L9.57274 1009.36L9.57182 1009.36L9.57091 1009.36L9.57 1009.36L9.5691 1009.36L9.5682 1009.36L9.5673 1009.36L9.56641 1009.36L9.56553 1009.36L9.56464 1009.36L9.56377 1009.37L9.5629 1009.37L9.56203 1009.37L9.56117 1009.37L9.56031 1009.37L9.55945 1009.37L9.5586 1009.37L9.55776 1009.37L9.55692 1009.37L9.55608 1009.37L9.55525 1009.37L9.55442 1009.37L9.5536 1009.38L9.55278 1009.38L9.55197 1009.38L9.55116 1009.38L9.55036 1009.38L9.54956 1009.38L9.54876 1009.38L9.54797 1009.38L9.54718 1009.38L9.5464 1009.38L9.54562 1009.38L9.54485 1009.38L9.54408 1009.39L9.54331 1009.39L9.54255 1009.39L9.5418 1009.39L9.54104 1009.39L9.5403 1009.39L9.53955 1009.39L9.53881 1009.39L9.53808 1009.39L9.53735 1009.39L9.53662 1009.39L9.5359 1009.39L9.53518 1009.39L9.53447 1009.39L9.53376 1009.4L9.53306 1009.4L9.53235 1009.4L9.53166 1009.4L9.53097 1009.4L9.53028 1009.4L9.52959 1009.4L9.52891 1009.4L9.52824 1009.4L9.52757 1009.4L9.5269 1009.4L9.52624 1009.4L9.52558 1009.4L9.52492 1009.4L9.52427 1009.41L9.52362 1009.41L9.52298 1009.41L9.52234 1009.41L9.52171 1009.41L9.52108 1009.41L9.52045 1009.41L9.51983 1009.41L9.51921 1009.41L9.5186 1009.41L9.51799 1009.41L9.51738 1009.41L9.51678 1009.41L9.51618 1009.41L9.51558 1009.41L9.51499 1009.41L9.51441 1009.41L9.51383 1009.42L9.51325 1009.42L9.51267 1009.42L9.5121 1009.42L9.51154 1009.42L9.51097 1009.42L9.51041 1009.42L9.50986 1009.42L9.50931 1009.42L9.50876 1009.42L9.50822 1009.42L9.50768 1009.42L9.50714 1009.42L9.50661 1009.42L9.50608 1009.42L9.50556 1009.42L9.50504 1009.42L9.50452 1009.42L9.50401 1009.43L9.5035 1009.43L9.503 1009.43L9.50249 1009.43L9.502 1009.43L9.5015 1009.43L9.50101 1009.43L9.50053 1009.43L9.50004 1009.43L9.49957 1009.43L9.49909 1009.43L9.49862 1009.43L9.49815 1009.43L9.49769 1009.43L9.49723 1009.43L9.49677 1009.43L9.49632 1009.43L9.49587 1009.43L9.49542 1009.43L9.49498 1009.43L9.49454 1009.43L9.49411 1009.44L9.49368 1009.44L9.49325 1009.44L9.49282 1009.44L9.4924 1009.44L9.49199 1009.44L9.49157 1009.44L9.49116 1009.44L9.49076 1009.44L9.49036 1009.44L9.48996 1009.44L9.48956 1009.44L9.48917 1009.44L9.48878 1009.44L9.48839 1009.44L9.48801 1009.44L9.48763 1009.44L9.48726 1009.44L9.48689 1009.44L9.48652 1009.44L9.48616 1009.44L9.48579 1009.44L9.48544 1009.44L9.48508 1009.44L9.48473 1009.44L9.48438 1009.44L9.48404 1009.45L9.4837 1009.45L9.48336 1009.45L9.48303 1009.45L9.4827 1009.45L9.48237 1009.45L9.48205 1009.45L9.48173 1009.45L9.48141 1009.45L9.48109 1009.45L9.48078 1009.45L9.48048 1009.45L9.48017 1009.45L9.47987 1009.45L9.47957 1009.45L9.47928 1009.45L9.47899 1009.45L9.4787 1009.45L9.47841 1009.45L9.47813 1009.45L9.47785 1009.45L9.47758 1009.45L9.47731 1009.45L9.47704 1009.45L9.47677 1009.45L9.47651 1009.45L9.47625 1009.45L9.47599 1009.45L9.47574 1009.45L9.47549 1009.45L9.47524 1009.45L9.475 1009.45L9.47476 1009.45L9.47452 1009.45L9.47429 1009.46L9.47406 1009.46L9.47383 1009.46L9.4736 1009.46L9.47338 1009.46L9.47316 1009.46L9.47295 1009.46L9.47273 1009.46L9.47252 1009.46L9.47231 1009.46L9.47211 1009.46L9.47191 1009.46L9.47171 1009.46L9.47152 1009.46L9.47132 1009.46L9.47113 1009.46L9.47095 1009.46L9.47076 1009.46L9.47058 1009.46L9.47041 1009.46L9.47023 1009.46L9.47006 1009.46L9.46989 1009.46L9.46972 1009.46L9.46956 1009.46L9.4694 1009.46L9.46924 1009.46L9.46909 1009.46L9.46893 1009.46L9.46879 1009.46L9.46864 1009.46L9.4685 1009.46L9.46835 1009.46L9.46822 1009.46L9.46808 1009.46L9.46795 1009.46L9.46782 1009.46L9.46769 1009.46L9.46757 1009.46L9.46745 1009.46L9.46733 1009.46L9.46721 1009.46L9.4671 1009.46L9.46699 1009.46L9.46688 1009.46L9.46677 1009.46L9.46667 1009.46L9.46657 1009.46L9.46647 1009.46L9.46638 1009.46L9.46629 1009.46L9.4662 1009.46L9.46611 1009.46L9.46603 1009.46L9.46594 1009.46L9.46587 1009.46L9.46579 1009.46L9.46571 1009.46L9.46564 1009.46L9.46557 1009.46L9.46551 1009.46L9.46544 1009.46L9.46538 1009.46L9.46532 1009.46L9.46527 1009.46L9.46521 1009.46L9.46516 1009.46L9.46511 1009.46L9.46507 1009.46L9.46502 1009.46L9.46498 1009.46L9.46494 1009.46L9.46491 1009.46L9.46487 1009.46L9.46484 1009.46L9.46481 1009.46L9.46479 1009.46L9.46476 1009.46L9.46474 1009.46L9.46472 1009.46L9.4647 1009.46L9.46469 1009.46L9.46467 1009.46L9.46466 1009.46L9.46465 1009.46L9.46465 1009.46L8.96464 1009.96L8.96394 1009.96L8.9584 1009.97L7.9584 1011.47L6.9584 1012.97L6.95807 1012.97L6.95528 1012.98L6.45528 1013.98L5.95528 1014.98L5.95527 1014.98L5.95527 1014.98L5.95526 1014.98L5.95525 1014.98L5.95524 1014.98L5.95522 1014.98L5.9552 1014.98L5.95518 1014.98L5.95516 1014.98L5.95514 1014.98L5.95511 1014.98L5.95508 1014.98L5.95505 1014.98L5.95502 1014.98L5.95498 1014.98L5.95494 1014.98L5.9549 1014.98L5.95486 1014.98L5.95481 1014.98L5.95476 1014.98L5.95471 1014.98L5.95466 1014.98L5.9546 1014.98L5.95454 1014.98L5.95448 1014.98L5.95442 1014.98L5.95435 1014.98L5.95428 1014.98L5.95421 1014.98L5.95413 1014.98L5.95406 1014.98L5.95398 1014.98L5.9539 1014.98L5.95381 1014.98L5.95373 1014.98L5.95364 1014.98L5.95354 1014.98L5.95345 1014.98L5.95335 1014.98L5.95325 1014.98L5.95315 1014.98L5.95304 1014.98L5.95294 1014.98L5.95283 1014.98L5.95271 1014.98L5.9526 1014.98L5.95248 1014.98L5.95236 1014.98L5.95223 1014.98L5.9521 1014.98L5.95197 1014.98L5.95184 1014.98L5.95171 1014.98L5.95157 1014.99L5.95143 1014.99L5.95128 1014.99L5.95114 1014.99L5.95099 1014.99L5.95084 1014.99L5.95068 1014.99L5.95052 1014.99L5.95036 1014.99L5.9502 1014.99L5.95003 1014.99L5.94987 1014.99L5.94969 1014.99L5.94952 1014.99L5.94934 1014.99L5.94916 1014.99L5.94898 1014.99L5.94879 1014.99L5.9486 1014.99L5.94841 1014.99L5.94821 1014.99L5.94801 1014.99L5.94781 1014.99L5.94761 1014.99L5.9474 1014.99L5.94719 1014.99L5.94698 1014.99L5.94676 1014.99L5.94654 1015L5.94632 1015L5.9461 1015L5.94587 1015L5.94564 1015L5.9454 1015L5.94516 1015L5.94492 1015L5.94468 1015L5.94443 1015L5.94418 1015L5.94393 1015L5.94367 1015L5.94341 1015L5.94315 1015L5.94289 1015L5.94262 1015L5.94234 1015L5.94207 1015L5.94179 1015L5.94151 1015.01L5.94122 1015.01L5.94094 1015.01L5.94065 1015.01L5.94035 1015.01L5.94005 1015.01L5.93975 1015.01L5.93945 1015.01L5.93914 1015.01L5.93883 1015.01L5.93852 1015.01L5.9382 1015.01L5.93788 1015.01L5.93755 1015.01L5.93723 1015.01L5.9369 1015.01L5.93656 1015.02L5.93622 1015.02L5.93588 1015.02L5.93554 1015.02L5.93519 1015.02L5.93484 1015.02L5.93449 1015.02L5.93413 1015.02L5.93377 1015.02L5.9334 1015.02L5.93304 1015.02L5.93266 1015.02L5.93229 1015.02L5.93191 1015.02L5.93153 1015.03L5.93114 1015.03L5.93076 1015.03L5.93036 1015.03L5.92997 1015.03L5.92957 1015.03L5.92917 1015.03L5.92876 1015.03L5.92835 1015.03L5.92794 1015.03L5.92752 1015.03L5.9271 1015.03L5.92667 1015.03L5.92625 1015.04L5.92582 1015.04L5.92538 1015.04L5.92494 1015.04L5.9245 1015.04L5.92405 1015.04L5.92361 1015.04L5.92315 1015.04L5.9227 1015.04L5.92224 1015.04L5.92177 1015.04L5.9213 1015.05L5.92083 1015.05L5.92036 1015.05L5.91988 1015.05L5.9194 1015.05L5.91891 1015.05L5.91842 1015.05L5.91793 1015.05L5.91743 1015.05L5.91693 1015.05L5.91642 1015.06L5.91591 1015.06L5.9154 1015.06L5.91488 1015.06L5.91436 1015.06L5.91384 1015.06L5.91331 1015.06L5.91278 1015.06L5.91225 1015.06L5.91171 1015.06L5.91116 1015.07L5.91062 1015.07L5.91006 1015.07L5.90951 1015.07L5.90895 1015.07L5.90839 1015.07L5.90782 1015.07L5.90725 1015.07L5.90668 1015.07L5.9061 1015.08L5.90552 1015.08L5.90493 1015.08L5.90434 1015.08L5.90374 1015.08L5.90315 1015.08L5.90254 1015.08L5.90194 1015.08L5.90133 1015.09L5.90071 1015.09L5.9001 1015.09L5.89947 1015.09L5.89885 1015.09L5.89822 1015.09L5.89758 1015.09L5.89694 1015.09L5.8963 1015.1L5.89565 1015.1L5.895 1015.1L5.89435 1015.1L5.89369 1015.1L5.89302 1015.1L5.89236 1015.1L5.89169 1015.1L5.89101 1015.11L5.89033 1015.11L5.88965 1015.11L5.88896 1015.11L5.88827 1015.11L5.88757 1015.11L5.88687 1015.11L5.88616 1015.12L5.88545 1015.12L5.88474 1015.12L5.88402 1015.12L5.8833 1015.12L5.88257 1015.12L5.88184 1015.12L5.88111 1015.13L5.88037 1015.13L5.87963 1015.13L5.87888 1015.13L5.87813 1015.13L5.87737 1015.13L5.87661 1015.13L5.87584 1015.14L5.87507 1015.14L5.8743 1015.14L5.87352 1015.14L5.87274 1015.14L5.87195 1015.14L5.87116 1015.15L5.87037 1015.15L5.86957 1015.15L5.86876 1015.15L5.86795 1015.15L5.86714 1015.15L5.86632 1015.16L5.8655 1015.16L5.86467 1015.16L5.86384 1015.16L5.863 1015.16L5.86216 1015.16L5.86132 1015.17L5.86047 1015.17L5.85962 1015.17L5.85876 1015.17L5.85789 1015.17L5.85703 1015.17L5.85616 1015.18L5.85528 1015.18L5.8544 1015.18L5.85351 1015.18L5.85262 1015.18L5.85173 1015.18L5.85083 1015.19L5.84992 1015.19L5.84901 1015.19L5.8481 1015.19L5.84718 1015.19L5.84626 1015.2L5.84533 1015.2L5.8444 1015.2L5.84346 1015.2L5.84252 1015.2L5.84158 1015.21L5.84062 1015.21L5.83967 1015.21L5.83871 1015.21L5.83774 1015.21L5.83677 1015.21L5.8358 1015.22L5.83482 1015.22L5.83383 1015.22L5.83285 1015.22L5.83185 1015.22L5.83085 1015.23L5.82985 1015.23L5.82884 1015.23L5.82783 1015.23L5.82681 1015.23L5.82579 1015.24L5.82476 1015.24L5.82373 1015.24L5.82269 1015.24L5.82165 1015.24L5.8206 1015.25L5.81955 1015.25L5.81849 1015.25L5.81743 1015.25L5.81637 1015.26L5.81529 1015.26L5.81422 1015.26L5.81314 1015.26L5.81205 1015.26L5.81096 1015.27L5.80986 1015.27L5.80876 1015.27L5.80765 1015.27L5.80654 1015.28L5.80542 1015.28L5.8043 1015.28L5.80318 1015.28L5.80205 1015.28L5.80091 1015.29L5.79977 1015.29L5.79862 1015.29L5.79747 1015.29L5.79631 1015.3L5.79515 1015.3L5.79398 1015.3L5.79281 1015.3L5.79163 1015.3L5.79045 1015.31L5.78926 1015.31L5.78807 1015.31L5.78687 1015.31L5.78567 1015.32L5.78446 1015.32L5.78325 1015.32L5.78203 1015.32L5.78081 1015.33L5.77958 1015.33L5.77834 1015.33L5.7771 1015.33L5.77586 1015.34L5.77461 1015.34L5.77335 1015.34L5.77209 1015.34L5.77083 1015.35L5.76955 1015.35L5.76828 1015.35L5.767 1015.35L5.76571 1015.36L5.76442 1015.36L5.76312 1015.36L5.76182 1015.36L5.76051 1015.37L5.75919 1015.37L5.75788 1015.37L5.75655 1015.38L5.75522 1015.38L5.75389 1015.38L5.75255 1015.38L5.7512 1015.39L5.74985 1015.39L5.74849 1015.39L5.74713 1015.39L5.74576 1015.4L5.74439 1015.4L5.74301 1015.4L5.74163 1015.4L5.74024 1015.41L5.73884 1015.41L5.73744 1015.41L5.73603 1015.42L5.73462 1015.42L5.73321 1015.42L5.73178 1015.42L5.73035 1015.43L5.72892 1015.43L5.72748 1015.43L5.72604 1015.44L5.72459 1015.44L5.72313 1015.44L5.72167 1015.44L5.7202 1015.45L5.71873 1015.45L5.71725 1015.45L5.71577 1015.46L5.71428 1015.46L5.71278 1015.46L5.71128 1015.47L5.70977 1015.47L5.70826 1015.47L5.70674 1015.47L5.70522 1015.48L5.70369 1015.48L5.70215 1015.48L5.70061 1015.49L5.69907 1015.49L5.69751 1015.49L5.69596 1015.5L5.69439 1015.5L5.69282 1015.5L5.69125 1015.51L5.68967 1015.51L5.68808 1015.51L5.68649 1015.52L5.68489 1015.52L5.68328 1015.52L5.68167 1015.52L5.68006 1015.53L5.67843 1015.53L5.67681 1015.53L5.67517 1015.54L5.67353 1015.54L5.67189 1015.54L5.67024 1015.55L5.66858 1015.55L5.66692 1015.55L5.66525 1015.56L5.66357 1015.56L5.66189 1015.56L5.6602 1015.57L5.65851 1015.57L5.65681 1015.57L5.65511 1015.58L5.6534 1015.58L5.65168 1015.58L5.64996 1015.59L5.64823 1015.59L5.64649 1015.6L5.64475 1015.6L5.64301 1015.6L5.64125 1015.61L5.63949 1015.61L5.63773 1015.61L5.63596 1015.62L5.63418 1015.62L5.6324 1015.62L5.63061 1015.63L5.62881 1015.63L5.62701 1015.63L5.6252 1015.64L5.62339 1015.64L5.62157 1015.65L5.61974 1015.65L5.61791 1015.65L5.61607 1015.66L5.61423 1015.66L5.61238 1015.66L5.61052 1015.67L5.60866 1015.67L5.60679 1015.67L5.60491 1015.68L5.60303 1015.68L5.60114 1015.69L5.59925 1015.69L5.59735 1015.69L5.59544 1015.7L5.59353 1015.7L5.59161 1015.7L5.58968 1015.71L5.58775 1015.71L5.58581 1015.72L5.58387 1015.72L5.58191 1015.72L5.57996 1015.73L5.57799 1015.73L5.57602 1015.74L5.57405 1015.74L5.57206 1015.74L5.57008 1015.75L5.56808 1015.75L5.56608 1015.76L5.56407 1015.76L5.56205 1015.76L5.56003 1015.77L5.55801 1015.77L5.55597 1015.78L5.55393 1015.78L5.55188 1015.78L5.54983 1015.79L5.54777 1015.79L5.5457 1015.8L5.54363 1015.8L5.54155 1015.81L5.53947 1015.81L5.53737 1015.81L5.53527 1015.82L5.53317 1015.82L5.53106 1015.83L5.52894 1015.83L5.52681 1015.83L5.52468 1015.84L5.52254 1015.84L5.5204 1015.85L5.51824 1015.85L5.51609 1015.86L5.51392 1015.86L5.51175 1015.86L5.50957 1015.87L5.50739 1015.87L5.5052 1015.88L5.503 1015.88L5.50079 1015.89L5.49858 1015.89L5.49636 1015.9L5.49414 1015.9L5.49191 1015.9L5.48967 1015.91L5.48742 1015.91L5.48517 1015.92L5.48291 1015.92L5.48065 1015.93L5.47837 1015.93L5.4761 1015.94L5.47381 1015.94L5.47152 1015.95L5.46922 1015.95L5.46691 1015.95L5.4646 1015.96L5.46228 1015.96L5.45995 1015.97L5.45762 1015.97L5.45528 1015.98L5.45294 1015.98L5.4506 1015.99L5.44828 1015.99L5.44596 1016L5.44365 1016L5.44134 1016.01L5.43904 1016.01L5.43675 1016.01L5.43446 1016.02L5.43218 1016.02L5.42991 1016.03L5.42765 1016.03L5.42539 1016.04L5.42314 1016.04L5.42089 1016.05L5.41865 1016.05L5.41642 1016.06L5.41419 1016.06L5.41198 1016.06L5.40977 1016.07L5.40756 1016.07L5.40536 1016.08L5.40317 1016.08L5.40099 1016.09L5.39881 1016.09L5.39664 1016.09L5.39447 1016.1L5.39231 1016.1L5.39016 1016.11L5.38802 1016.11L5.38588 1016.12L5.38375 1016.12L5.38162 1016.12L5.3795 1016.13L5.37739 1016.13L5.37528 1016.14L5.37318 1016.14L5.37109 1016.15L5.36901 1016.15L5.36693 1016.15L5.36485 1016.16L5.36279 1016.16L5.36073 1016.17L5.35867 1016.17L5.35663 1016.17L5.35459 1016.18L5.35255 1016.18L5.35052 1016.19L5.3485 1016.19L5.34649 1016.2L5.34448 1016.2L5.34248 1016.2L5.34048 1016.21L5.33849 1016.21L5.33651 1016.22L5.33453 1016.22L5.33256 1016.22L5.3306 1016.23L5.32864 1016.23L5.32669 1016.23L5.32475 1016.24L5.32281 1016.24L5.32088 1016.25L5.31895 1016.25L5.31703 1016.25L5.31512 1016.26L5.31321 1016.26L5.31131 1016.27L5.30942 1016.27L5.30753 1016.27L5.30565 1016.28L5.30377 1016.28L5.3019 1016.28L5.30004 1016.29L5.29818 1016.29L5.29633 1016.3L5.29449 1016.3L5.29265 1016.3L5.29081 1016.31L5.28899 1016.31L5.28717 1016.31L5.28535 1016.32L5.28355 1016.32L5.28175 1016.32L5.27995 1016.33L5.27816 1016.33L5.27638 1016.34L5.2746 1016.34L5.27283 1016.34L5.27106 1016.35L5.2693 1016.35L5.26755 1016.35L5.26581 1016.36L5.26406 1016.36L5.26233 1016.36L5.2606 1016.37L5.25888 1016.37L5.25716 1016.37L5.25545 1016.38L5.25375 1016.38L5.25205 1016.38L5.25035 1016.39L5.24867 1016.39L5.24699 1016.39L5.24531 1016.4L5.24364 1016.4L5.24198 1016.4L5.24032 1016.41L5.23867 1016.41L5.23702 1016.41L5.23539 1016.42L5.23375 1016.42L5.23212 1016.42L5.2305 1016.43L5.22889 1016.43L5.22728 1016.43L5.22567 1016.44L5.22407 1016.44L5.22248 1016.44L5.22089 1016.45L5.21931 1016.45L5.21774 1016.45L5.21617 1016.46L5.2146 1016.46L5.21304 1016.46L5.21149 1016.47L5.20994 1016.47L5.2084 1016.47L5.20687 1016.47L5.20534 1016.48L5.20381 1016.48L5.2023 1016.48L5.20078 1016.49L5.19928 1016.49L5.19778 1016.49L5.19628 1016.5L5.19479 1016.5L5.19331 1016.5L5.19183 1016.5L5.19036 1016.51L5.18889 1016.51L5.18743 1016.51L5.18597 1016.52L5.18452 1016.52L5.18308 1016.52L5.18164 1016.52L5.1802 1016.53L5.17877 1016.53L5.17735 1016.53L5.17593 1016.54L5.17452 1016.54L5.17312 1016.54L5.17172 1016.54L5.17032 1016.55L5.16893 1016.55L5.16755 1016.55L5.16617 1016.56L5.1648 1016.56L5.16343 1016.56L5.16207 1016.56L5.16071 1016.57L5.15936 1016.57L5.15801 1016.57L5.15667 1016.57L5.15534 1016.58L5.15401 1016.58L5.15268 1016.58L5.15136 1016.59L5.15005 1016.59L5.14874 1016.59L5.14744 1016.59L5.14614 1016.6L5.14485 1016.6L5.14356 1016.6L5.14228 1016.6L5.141 1016.61L5.13973 1016.61L5.13847 1016.61L5.13721 1016.61L5.13595 1016.62L5.1347 1016.62L5.13346 1016.62L5.13222 1016.62L5.13098 1016.63L5.12975 1016.63L5.12853 1016.63L5.12731 1016.63L5.1261 1016.64L5.12489 1016.64L5.12368 1016.64L5.12249 1016.64L5.12129 1016.65L5.12011 1016.65L5.11892 1016.65L5.11775 1016.65L5.11657 1016.66L5.11541 1016.66L5.11425 1016.66L5.11309 1016.66L5.11194 1016.66L5.11079 1016.67L5.10965 1016.67L5.10851 1016.67L5.10738 1016.67L5.10625 1016.68L5.10513 1016.68L5.10402 1016.68L5.1029 1016.68L5.1018 1016.68L5.1007 1016.69L5.0996 1016.69L5.09851 1016.69L5.09742 1016.69L5.09634 1016.7L5.09526 1016.7L5.09419 1016.7L5.09313 1016.7L5.09206 1016.7L5.09101 1016.71L5.08996 1016.71L5.08891 1016.71L5.08787 1016.71L5.08683 1016.71L5.0858 1016.72L5.08477 1016.72L5.08375 1016.72L5.08273 1016.72L5.08172 1016.72L5.08071 1016.73L5.0797 1016.73L5.07871 1016.73L5.07771 1016.73L5.07672 1016.73L5.07574 1016.74L5.07476 1016.74L5.07378 1016.74L5.07281 1016.74L5.07185 1016.74L5.07089 1016.75L5.06993 1016.75L5.06898 1016.75L5.06804 1016.75L5.06709 1016.75L5.06616 1016.76L5.06523 1016.76L5.0643 1016.76L5.06338 1016.76L5.06246 1016.76L5.06154 1016.77L5.06063 1016.77L5.05973 1016.77L5.05883 1016.77L5.05794 1016.77L5.05705 1016.77L5.05616 1016.78L5.05528 1016.78L5.0544 1016.78L5.05353 1016.78L5.05266 1016.78L5.0518 1016.78L5.05094 1016.79L5.05009 1016.79L5.04924 1016.79L5.04839 1016.79L5.04755 1016.79L5.04672 1016.79L5.04589 1016.8L5.04506 1016.8L5.04424 1016.8L5.04342 1016.8L5.0426 1016.8L5.0418 1016.8L5.04099 1016.81L5.04019 1016.81L5.0394 1016.81L5.0386 1016.81L5.03782 1016.81L5.03703 1016.81L5.03626 1016.82L5.03548 1016.82L5.03471 1016.82L5.03395 1016.82L5.03319 1016.82L5.03243 1016.82L5.03168 1016.82L5.03093 1016.83L5.03019 1016.83L5.02945 1016.83L5.02871 1016.83L5.02798 1016.83L5.02726 1016.83L5.02653 1016.84L5.02582 1016.84L5.0251 1016.84L5.02439 1016.84L5.02369 1016.84L5.02299 1016.84L5.02229 1016.84L5.0216 1016.84L5.02091 1016.85L5.02023 1016.85L5.01955 1016.85L5.01887 1016.85L5.0182 1016.85L5.01753 1016.85L5.01687 1016.85L5.01621 1016.86L5.01555 1016.86L5.0149 1016.86L5.01426 1016.86L5.01361 1016.86L5.01298 1016.86L5.01234 1016.86L5.01171 1016.86L5.01108 1016.87L5.01046 1016.87L5.00984 1016.87L5.00923 1016.87L5.00862 1016.87L5.00801 1016.87L5.00741 1016.87L5.00681 1016.87L5.00622 1016.88L5.00563 1016.88L5.00504 1016.88L5.00446 1016.88L5.00388 1016.88L5.00331 1016.88L5.00274 1016.88L5.00217 1016.88L5.00161 1016.88L5.00105 1016.89L5.00049 1016.89L4.99994 1016.89L4.99939 1016.89L4.99885 1016.89L4.99831 1016.89L4.99778 1016.89L4.99725 1016.89L4.99672 1016.89L4.99619 1016.9L4.99567 1016.9L4.99516 1016.9L4.99464 1016.9L4.99414 1016.9L4.99363 1016.9L4.99313 1016.9L4.99263 1016.9L4.99214 1016.9L4.99165 1016.9L4.99116 1016.91L4.99068 1016.91L4.9902 1016.91L4.98973 1016.91L4.98925 1016.91L4.98879 1016.91L4.98832 1016.91L4.98786 1016.91L4.98741 1016.91L4.98695 1016.91L4.9865 1016.92L4.98606 1016.92L4.98561 1016.92L4.98518 1016.92L4.98474 1016.92L4.98431 1016.92L4.98388 1016.92L4.98346 1016.92L4.98304 1016.92L4.98262 1016.92L4.98221 1016.92L4.9818 1016.92L4.98139 1016.93L4.98099 1016.93L4.98059 1016.93L4.98019 1016.93L4.9798 1016.93L4.97941 1016.93L4.97903 1016.93L4.97865 1016.93L4.97827 1016.93L4.97789 1016.93L4.97752 1016.93L4.97715 1016.93L4.97679 1016.93L4.97643 1016.94L4.97607 1016.94L4.97572 1016.94L4.97537 1016.94L4.97502 1016.94L4.97467 1016.94L4.97433 1016.94L4.974 1016.94L4.97366 1016.94L4.97333 1016.94L4.973 1016.94L4.97268 1016.94L4.97236 1016.94L4.97204 1016.94L4.97173 1016.94L4.97142 1016.95L4.97111 1016.95L4.97081 1016.95L4.9705 1016.95L4.97021 1016.95L4.96991 1016.95L4.96962 1016.95L4.96933 1016.95L4.96905 1016.95L4.96877 1016.95L4.96849 1016.95L4.96821 1016.95L4.96794 1016.95L4.96767 1016.95L4.96741 1016.95L4.96714 1016.95L4.96688 1016.95L4.96663 1016.95L4.96638 1016.96L4.96613 1016.96L4.96588 1016.96L4.96563 1016.96L4.96539 1016.96L4.96516 1016.96L4.96492 1016.96L4.96469 1016.96L4.96446 1016.96L4.96424 1016.96L4.96401 1016.96L4.9638 1016.96L4.96358 1016.96L4.96337 1016.96L4.96316 1016.96L4.96295 1016.96L4.96274 1016.96L4.96254 1016.96L4.96234 1016.96L4.96215 1016.96L4.96196 1016.96L4.96177 1016.96L4.96158 1016.97L4.9614 1016.97L4.96122 1016.97L4.96104 1016.97L4.96086 1016.97L4.96069 1016.97L4.96052 1016.97L4.96036 1016.97L4.96019 1016.97L4.96003 1016.97L4.95988 1016.97L4.95972 1016.97L4.95957 1016.97L4.95942 1016.97L4.95927 1016.97L4.95913 1016.97L4.95899 1016.97L4.95885 1016.97L4.95872 1016.97L4.95858 1016.97L4.95845 1016.97L4.95833 1016.97L4.9582 1016.97L4.95808 1016.97L4.95796 1016.97L4.95785 1016.97L4.95773 1016.97L4.95762 1016.97L4.95751 1016.97L4.95741 1016.97L4.95731 1016.97L4.95721 1016.97L4.95711 1016.97L4.95701 1016.97L4.95692 1016.97L4.95683 1016.97L4.95674 1016.97L4.95666 1016.97L4.95658 1016.98L4.9565 1016.98L4.95642 1016.98L4.95635 1016.98L4.95628 1016.98L4.95621 1016.98L4.95614 1016.98L4.95608 1016.98L4.95602 1016.98L4.95596 1016.98L4.9559 1016.98L4.95585 1016.98L4.9558 1016.98L4.95575 1016.98L4.9557 1016.98L4.95566 1016.98L4.95562 1016.98L4.95558 1016.98L4.95554 1016.98L4.95551 1016.98L4.95548 1016.98L4.95545 1016.98L4.95542 1016.98L4.95539 1016.98L4.95537 1016.98L4.95535 1016.98L4.95534 1016.98L4.95532 1016.98L4.95531 1016.98L4.9553 1016.98L4.95529 1016.98L4.95482 1016.98L4.95257 1016.98L4.45257 1018.48L3.95257 1019.98L3.95252 1019.98L3.95192 1019.99L2.97527 1023.4L2.55 1022.98V1001.04L4.45783 1000.56L5.45044 1008.01ZM2.05 1023.55H2.93767L2.05 1027.54V1023.55ZM5.54434 1007.95L4.55864 1000.56L9.99106 1001.55L9.991 1001.55L9.99644 1001.55L16.9964 1002.05L16.9964 1002.05H17H19.6919L18.4842 1002.45L18.484 1002.45L18.4776 1002.46L17.4776 1002.96L16.4776 1003.46L15.4776 1003.96L15.4704 1003.96L15.4646 1003.96L14.9704 1004.46L13.9776 1004.96L13.9704 1004.96L13.9646 1004.96L13.4646 1005.46L12.9681 1005.96L11.4723 1006.96L11.4717 1006.96L11.4646 1006.96L10.4646 1007.96L10.4634 1007.96L10.4568 1007.97L9.98701 1008.78C9.93694 1008.75 9.8694 1008.71 9.79041 1008.68C9.67927 1008.63 9.53872 1008.59 9.37648 1008.55C9.05187 1008.46 8.63605 1008.38 8.18575 1008.3C7.30083 1008.15 6.27868 1008.03 5.54434 1007.95Z" fill="white" stroke="white" stroke-width="0.1"/>
<path d="M289.5 1019.5V1025C289.333 1024.67 289 1023.9 289 1023.5V1023L288.5 1021.5L288 1020L287.5 1018.5L286.5 1016L285.5 1014L285 1013L284 1011.5L283 1010C281.473 1007.92 280.43 1007.02 278.5 1005.5C277.405 1004.58 276.73 1004.18 275.5 1003.5L273.5 1002.5H283.5L288.5 1009.5V1013V1015.5L289.5 1019.5Z" fill="white"/>
<path d="M289 1023.5C289 1023.9 289.333 1024.67 289.5 1025V1019.5L288.5 1015.5V1013V1009.5L283.5 1002.5H273.5L275.5 1003.5C276.73 1004.18 277.405 1004.58 278.5 1005.5C280.43 1007.02 281.473 1007.92 283 1010L284 1011.5L285 1013L285.5 1014L286.5 1016L287.5 1018.5L288 1020L288.5 1021.5L289 1023M289 1023.5C289 1023.1 289 1023 289 1023M289 1023.5V1023" stroke="white" stroke-width="0.1"/>
<path d="M272 1002V849H289V1002H272Z" fill="white" stroke="white"/>
</svg>
